####
#
# OBJ File Generated by Meshlab
#
####
# Object N64.obj
#
# Vertices: 68
# Faces: 136
#
####
vn -0.509762 -0.532668 0.675580
v -36.362629 13.435440 72.351570
vn -0.460353 -0.842156 -0.280800
v -36.362629 13.584560 0.000000
vn -0.691699 0.659958 -0.293272
v -36.362629 36.361389 0.000000
vn -0.992892 0.030553 0.115027
v -36.362629 -13.598170 32.702271
vn -0.000006 -1.000000 -0.000192
v -14.344970 -36.361389 39.882832
vn -0.692000 -0.706313 -0.149189
v -36.362629 -36.361389 0.000000
vn -0.585930 -0.567333 -0.578636
v 12.844720 -36.361389 0.000000
vn 0.695329 0.658550 0.287800
v 36.362629 36.361389 72.351570
vn -0.590386 0.563303 0.578043
v 13.271240 36.361389 72.351570
vn -0.030023 0.993072 -0.113609
v 13.737450 36.361389 39.005581
vn 0.587466 0.563705 -0.580621
v -12.854190 36.361389 0.000000
vn 0.993077 -0.029011 0.113824
v 36.362629 13.584560 33.124828
vn 0.508453 -0.527763 -0.680398
v 36.362629 12.964490 0.000000
vn 0.685351 0.712652 -0.149733
v 36.362629 36.361389 0.000000
vn 0.107569 -0.994197 -0.000871
v -14.344970 -36.326462 39.882832
vn 0.254703 -0.082271 -0.963513
v -13.706920 -36.326462 38.946911
vn 0.849596 0.526066 -0.037973
v -14.344970 -14.177860 39.882832
vn 0.003173 -0.999995 -0.000876
v -14.344970 -36.361389 0.000000
vn 0.752988 0.401656 -0.521232
v -13.706920 -12.690000 0.000000
vn -0.993208 -0.028022 -0.112931
v -36.362629 13.584560 38.540489
vn -0.508789 0.526456 -0.681160
v -36.362629 -12.690000 0.000000
vn 0.006002 0.802634 -0.596441
v -14.227000 13.584560 38.540489
vn 0.029680 0.992972 0.114566
v -13.706920 36.361389 32.783600
vn -0.364958 -0.657293 0.659372
v 13.271240 13.584560 72.351570
vn 0.999838 -0.015380 -0.009334
v -13.706920 -36.326462 0.000000
vn 0.359357 -0.656278 -0.663447
v -12.854190 13.584560 0.000000
vn -0.008039 -0.999946 0.006515
v -14.227000 13.584560 32.020809
vn 0.466394 -0.840892 0.274550
v 36.362629 13.584560 72.351570
vn -0.683429 0.715167 0.146497
v -36.362629 36.361389 72.351570
vn 0.762064 0.423028 0.490211
v -13.706920 36.361389 72.351570
vn 0.752765 -0.412463 0.513049
v -13.706920 13.435440 72.351570
vn 0.999970 -0.006012 0.004948
v -13.706920 -14.177860 31.852060
vn 0.004308 -0.800928 0.598745
v -14.344970 -13.598170 32.702271
vn 0.454809 0.889856 0.036135
v -14.344970 -14.177860 31.852060
vn 0.362820 0.659535 0.658312
v -13.280720 -13.598170 72.351570
vn -0.704634 -0.647410 0.290432
v -36.362629 -36.361389 72.351570
vn 0.683334 -0.714923 0.148123
v 36.362629 -36.361389 72.351570
vn -0.758879 0.416976 -0.500234
v 13.737450 36.361389 0.000000
vn 0.693275 -0.658448 -0.292942
v 36.362629 -36.361389 0.000000
vn 0.001297 -0.046844 -0.998901
v -14.344970 -36.326462 0.000000
vn -0.800742 0.004783 -0.598990
v -13.706920 -14.177860 38.946911
vn 0.679099 -0.732631 -0.045561
v -14.227000 14.424650 39.772751
vn -0.801855 -0.003725 0.597507
v -13.706920 14.424650 32.783600
vn 0.999980 0.004872 -0.004004
v -13.706920 14.424650 39.772751
vn 0.006002 0.999970 0.004931
v 14.257530 -13.598170 31.962139
vn 0.462663 0.841401 -0.279261
v 36.362629 -13.598170 0.000000
vn -0.356831 0.657849 -0.663254
v 12.844720 -13.598170 0.000000
vn -0.005352 0.999976 -0.004428
v -14.344970 -13.598170 39.882832
vn -0.467765 0.840859 0.272310
v -36.362629 -13.598170 72.351570
vn 0.941685 -0.334536 0.036254
v -14.227000 14.424650 32.020809
vn -0.004744 -0.801029 -0.598607
v 14.257530 -13.598170 38.963089
vn 0.593898 -0.557199 0.580357
v -13.280720 -36.361389 72.351570
vn -0.999969 0.006074 0.004985
v 13.737450 14.366280 31.978319
vn -0.763012 -0.419772 0.491533
v 13.737450 -36.361389 72.351570
vn -0.030613 -0.992860 0.115291
v 13.737450 -36.361389 32.724930
vn -0.999981 -0.004795 -0.003966
v 13.737450 -14.236230 39.899010
vn 0.800933 0.003824 0.598742
v 13.737450 -14.236230 32.724930
vn -0.909227 0.414961 0.033359
v 14.257530 -14.236230 31.962139
vn -0.565824 0.823692 -0.037077
v 14.257530 -14.236230 39.899010
vn -0.904413 -0.424618 -0.041683
v 14.375500 14.366280 39.941509
vn 0.993048 0.030000 -0.113825
v 36.362629 -13.598170 38.963089
vn -0.754208 -0.406534 -0.515655
v 13.737450 12.964490 0.000000
vn -0.005697 0.802045 0.597237
v 14.375500 13.584560 33.124828
vn 0.509554 0.529282 0.678392
v 36.362629 -13.160940 72.351570
vn -0.755185 0.408183 0.512915
v 13.737450 -13.160940 72.351570
vn 0.007348 -0.999955 -0.006012
v 14.375500 13.584560 39.941509
vn 0.801284 -0.004720 -0.598266
v 13.737450 14.366280 39.005581
vn -0.575442 -0.816542 0.046107
v 14.375500 14.366280 31.978319
# 68 vertices, 0 vertices normals

f 20//20 21//21 4//4
f 1//1 20//20 4//4
f 1//1 29//29 20//20
f 20//20 29//29 3//3
f 2//2 20//20 3//3
f 21//21 6//6 4//4
f 4//4 6//6 36//36
f 49//49 4//4 36//36
f 5//5 7//7 55//55
f 52//52 5//5 55//55
f 52//52 36//36 5//5
f 5//5 36//36 6//6
f 18//18 5//5 6//6
f 7//7 39//39 55//55
f 55//55 39//39 37//37
f 54//54 55//55 37//37
f 38//38 10//10 14//14
f 14//14 10//10 8//8
f 8//8 10//10 9//9
f 9//9 10//10 23//23
f 23//23 10//10 11//11
f 3//3 23//23 11//11
f 3//3 29//29 23//23
f 23//23 29//29 30//30
f 46//46 61//61 39//39
f 39//39 61//61 37//37
f 37//37 61//61 64//64
f 64//64 61//61 12//12
f 12//12 61//61 13//13
f 14//14 12//12 13//13
f 14//14 8//8 12//12
f 12//12 8//8 28//28
f 5//5 16//16 7//7
f 5//5 15//15 16//16
f 16//16 41//41 7//7
f 7//7 41//41 47//47
f 47//47 41//41 48//48
f 48//48 41//41 17//17
f 5//5 18//18 15//15
f 15//15 18//18 40//40
f 18//18 6//6 40//40
f 40//40 6//6 21//21
f 19//19 40//40 21//21
f 19//19 25//25 40//40
f 20//20 22//22 21//21
f 21//21 22//22 19//19
f 19//19 22//22 44//44
f 44//44 22//22 42//42
f 2//2 3//3 26//26
f 26//26 3//3 11//11
f 23//23 43//43 9//9
f 9//9 43//43 24//24
f 24//24 43//43 27//27
f 27//27 43//43 50//50
f 43//43 23//23 44//44
f 44//44 23//23 30//30
f 31//31 44//44 30//30
f 31//31 32//32 44//44
f 44//44 32//32 19//19
f 19//19 32//32 25//25
f 25//25 32//32 16//16
f 16//16 32//32 41//41
f 22//22 20//20 27//27
f 27//27 20//20 2//2
f 26//26 27//27 2//2
f 26//26 66//66 27//27
f 27//27 66//66 24//24
f 24//24 66//66 28//28
f 28//28 66//66 12//12
f 12//12 66//66 63//63
f 29//29 1//1 30//30
f 30//30 1//1 31//31
f 4//4 33//33 1//1
f 1//1 33//33 31//31
f 31//31 33//33 32//32
f 32//32 33//33 34//34
f 49//49 36//36 35//35
f 35//35 36//36 52//52
f 37//37 64//64 54//54
f 54//54 64//64 65//65
f 9//9 24//24 8//8
f 8//8 24//24 28//28
f 14//14 13//13 38//38
f 38//38 13//13 62//62
f 7//7 47//47 39//39
f 39//39 47//47 46//46
f 25//25 16//16 40//40
f 40//40 16//16 15//15
f 17//17 41//41 34//34
f 34//34 41//41 32//32
f 50//50 43//43 42//42
f 42//42 43//43 44//44
f 34//34 33//33 17//17
f 17//17 33//33 48//48
f 51//51 61//61 45//45
f 45//45 61//61 46//46
f 47//47 45//45 46//46
f 47//47 48//48 45//45
f 45//45 48//48 35//35
f 35//35 48//48 49//49
f 49//49 48//48 4//4
f 4//4 48//48 33//33
f 42//42 22//22 50//50
f 50//50 22//22 27//27
f 59//59 51//51 58//58
f 58//58 51//51 45//45
f 55//55 57//57 52//52
f 52//52 57//57 35//35
f 35//35 57//57 45//45
f 45//45 57//57 58//58
f 67//67 10//10 53//53
f 53//53 10//10 38//38
f 62//62 53//53 38//38
f 62//62 56//56 53//53
f 53//53 56//56 65//65
f 65//65 56//56 54//54
f 54//54 56//56 55//55
f 55//55 56//56 57//57
f 58//58 57//57 59//59
f 59//59 57//57 56//56
f 60//60 67//67 68//68
f 68//68 67//67 53//53
f 61//61 51//51 13//13
f 13//13 51//51 62//62
f 62//62 51//51 56//56
f 56//56 51//51 59//59
f 12//12 63//63 64//64
f 64//64 63//63 65//65
f 65//65 63//63 53//53
f 53//53 63//63 68//68
f 10//10 67//67 11//11
f 11//11 67//67 26//26
f 26//26 67//67 66//66
f 66//66 67//67 60//60
f 68//68 63//63 60//60
f 60//60 63//63 66//66
# 136 faces, 0 coords texture

# End of File