# Blender3D v247 OBJ File: 
# www.blender3d.org
o Font_Text
v 0.273000 0.122000 -0.682000
v 0.308012 0.122000 -0.680219
v 0.339597 0.122000 -0.675083
v 0.367828 0.122000 -0.666906
v 0.392778 0.122000 -0.656000
v 0.414519 0.122000 -0.642677
v 0.433125 0.122000 -0.627250
v 0.448668 0.122000 -0.610031
v 0.461222 0.122000 -0.591333
v 0.470859 0.122000 -0.571469
v 0.477653 0.122000 -0.550750
v 0.481675 0.122000 -0.529490
v 0.483000 0.122000 -0.508000
v 0.482310 0.122000 -0.490766
v 0.480227 0.122000 -0.474546
v 0.476734 0.122000 -0.459312
v 0.471815 0.122000 -0.445037
v 0.465451 0.122000 -0.431692
v 0.457625 0.122000 -0.419250
v 0.448320 0.122000 -0.407683
v 0.437519 0.122000 -0.396963
v 0.425203 0.122000 -0.387063
v 0.411356 0.122000 -0.377954
v 0.395961 0.122000 -0.369609
v 0.379000 0.122000 -0.362000
v 0.379000 0.122000 -0.360000
v 0.403654 0.122000 -0.354263
v 0.426565 0.122000 -0.346606
v 0.447656 0.122000 -0.337109
v 0.466852 0.122000 -0.325852
v 0.484075 0.122000 -0.312914
v 0.499250 0.122000 -0.298375
v 0.512300 0.122000 -0.282315
v 0.523148 0.122000 -0.264815
v 0.531719 0.122000 -0.245953
v 0.537935 0.122000 -0.225810
v 0.541721 0.122000 -0.204466
v 0.543000 0.122000 -0.182000
v 0.541662 0.122000 -0.160773
v 0.537542 0.122000 -0.139352
v 0.530484 0.122000 -0.118125
v 0.520333 0.122000 -0.097481
v 0.506932 0.122000 -0.077810
v 0.490125 0.122000 -0.059500
v 0.469755 0.122000 -0.042940
v 0.445667 0.122000 -0.028519
v 0.417703 0.122000 -0.016625
v 0.385708 0.122000 -0.007648
v 0.349526 0.122000 -0.001977
v 0.309000 0.122000 -0.000000
v 0.075000 0.122000 -0.000000
v 0.075000 0.122000 -0.682000
v 0.238000 0.122000 -0.390000
v 0.261210 0.122000 -0.390751
v 0.282347 0.122000 -0.393005
v 0.301422 0.122000 -0.396766
v 0.318444 0.122000 -0.402037
v 0.333425 0.122000 -0.408822
v 0.346375 0.122000 -0.417125
v 0.357304 0.122000 -0.426948
v 0.366222 0.122000 -0.438296
v 0.373141 0.122000 -0.451172
v 0.378069 0.122000 -0.465579
v 0.381019 0.122000 -0.481520
v 0.382000 0.122000 -0.499000
v 0.381377 0.122000 -0.511583
v 0.379435 0.122000 -0.523745
v 0.376063 0.122000 -0.535359
v 0.371148 0.122000 -0.546296
v 0.364581 0.122000 -0.556428
v 0.356250 0.122000 -0.565625
v 0.346044 0.122000 -0.573760
v 0.333852 0.122000 -0.580704
v 0.319563 0.122000 -0.586328
v 0.303065 0.122000 -0.590505
v 0.284248 0.122000 -0.593105
v 0.263000 0.122000 -0.594000
v 0.173000 0.122000 -0.594000
v 0.173000 0.122000 -0.390000
v 0.296000 0.122000 -0.088000
v 0.323031 0.122000 -0.089151
v 0.346745 0.122000 -0.092458
v 0.367328 0.122000 -0.097703
v 0.384963 0.122000 -0.104667
v 0.399834 0.122000 -0.113130
v 0.412125 0.122000 -0.122875
v 0.422020 0.122000 -0.133682
v 0.429704 0.122000 -0.145333
v 0.435359 0.122000 -0.157609
v 0.439171 0.122000 -0.170292
v 0.441324 0.122000 -0.183161
v 0.442000 0.122000 -0.196000
v 0.440996 0.122000 -0.211110
v 0.437968 0.122000 -0.225380
v 0.432891 0.122000 -0.238719
v 0.425741 0.122000 -0.251037
v 0.416494 0.122000 -0.262244
v 0.405125 0.122000 -0.272250
v 0.391611 0.122000 -0.280964
v 0.375926 0.122000 -0.288296
v 0.358047 0.122000 -0.294156
v 0.337949 0.122000 -0.298454
v 0.315608 0.122000 -0.301098
v 0.291000 0.122000 -0.302000
v 0.173000 0.122000 -0.302000
v 0.173000 0.122000 -0.088000
v 0.273000 -0.122000 -0.682000
v 0.308012 -0.122000 -0.680219
v 0.339597 -0.122000 -0.675083
v 0.367828 -0.122000 -0.666906
v 0.392778 -0.122000 -0.656000
v 0.414519 -0.122000 -0.642677
v 0.433125 -0.122000 -0.627250
v 0.448668 -0.122000 -0.610031
v 0.461222 -0.122000 -0.591333
v 0.470859 -0.122000 -0.571469
v 0.477653 -0.122000 -0.550750
v 0.481675 -0.122000 -0.529490
v 0.483000 -0.122000 -0.508000
v 0.482310 -0.122000 -0.490766
v 0.480227 -0.122000 -0.474546
v 0.476734 -0.122000 -0.459312
v 0.471815 -0.122000 -0.445037
v 0.465451 -0.122000 -0.431692
v 0.457625 -0.122000 -0.419250
v 0.448320 -0.122000 -0.407683
v 0.437519 -0.122000 -0.396963
v 0.425203 -0.122000 -0.387063
v 0.411356 -0.122000 -0.377954
v 0.395961 -0.122000 -0.369609
v 0.379000 -0.122000 -0.362000
v 0.379000 -0.122000 -0.360000
v 0.403654 -0.122000 -0.354263
v 0.426565 -0.122000 -0.346606
v 0.447656 -0.122000 -0.337109
v 0.466852 -0.122000 -0.325852
v 0.484075 -0.122000 -0.312914
v 0.499250 -0.122000 -0.298375
v 0.512300 -0.122000 -0.282315
v 0.523148 -0.122000 -0.264815
v 0.531719 -0.122000 -0.245953
v 0.537935 -0.122000 -0.225810
v 0.541721 -0.122000 -0.204466
v 0.543000 -0.122000 -0.182000
v 0.541662 -0.122000 -0.160773
v 0.537542 -0.122000 -0.139352
v 0.530484 -0.122000 -0.118125
v 0.520333 -0.122000 -0.097481
v 0.506932 -0.122000 -0.077810
v 0.490125 -0.122000 -0.059500
v 0.469755 -0.122000 -0.042940
v 0.445667 -0.122000 -0.028519
v 0.417703 -0.122000 -0.016625
v 0.385708 -0.122000 -0.007648
v 0.349526 -0.122000 -0.001977
v 0.309000 -0.122000 0.000000
v 0.075000 -0.122000 0.000000
v 0.075000 -0.122000 -0.682000
v 0.238000 -0.122000 -0.390000
v 0.261210 -0.122000 -0.390751
v 0.282347 -0.122000 -0.393005
v 0.301422 -0.122000 -0.396766
v 0.318444 -0.122000 -0.402037
v 0.333425 -0.122000 -0.408822
v 0.346375 -0.122000 -0.417125
v 0.357304 -0.122000 -0.426948
v 0.366222 -0.122000 -0.438296
v 0.373141 -0.122000 -0.451172
v 0.378069 -0.122000 -0.465579
v 0.381019 -0.122000 -0.481520
v 0.382000 -0.122000 -0.499000
v 0.381377 -0.122000 -0.511583
v 0.379435 -0.122000 -0.523745
v 0.376063 -0.122000 -0.535359
v 0.371148 -0.122000 -0.546296
v 0.364581 -0.122000 -0.556428
v 0.356250 -0.122000 -0.565625
v 0.346044 -0.122000 -0.573760
v 0.333852 -0.122000 -0.580704
v 0.319563 -0.122000 -0.586328
v 0.303065 -0.122000 -0.590505
v 0.284248 -0.122000 -0.593105
v 0.263000 -0.122000 -0.594000
v 0.173000 -0.122000 -0.594000
v 0.173000 -0.122000 -0.390000
v 0.296000 -0.122000 -0.088000
v 0.323031 -0.122000 -0.089151
v 0.346745 -0.122000 -0.092458
v 0.367328 -0.122000 -0.097703
v 0.384963 -0.122000 -0.104667
v 0.399834 -0.122000 -0.113130
v 0.412125 -0.122000 -0.122875
v 0.422020 -0.122000 -0.133682
v 0.429704 -0.122000 -0.145333
v 0.435359 -0.122000 -0.157609
v 0.439171 -0.122000 -0.170292
v 0.441324 -0.122000 -0.183161
v 0.442000 -0.122000 -0.196000
v 0.440996 -0.122000 -0.211110
v 0.437968 -0.122000 -0.225380
v 0.432891 -0.122000 -0.238719
v 0.425741 -0.122000 -0.251037
v 0.416494 -0.122000 -0.262244
v 0.405125 -0.122000 -0.272250
v 0.391611 -0.122000 -0.280964
v 0.375926 -0.122000 -0.288296
v 0.358047 -0.122000 -0.294156
v 0.337949 -0.122000 -0.298454
v 0.315608 -0.122000 -0.301098
v 0.291000 -0.122000 -0.302000
v 0.173000 -0.122000 -0.302000
v 0.173000 -0.122000 -0.088000
v 0.273000 -0.122000 -0.682000
v 0.273000 0.122000 -0.682000
v 0.308012 -0.122000 -0.680219
v 0.308012 0.122000 -0.680219
v 0.339597 -0.122000 -0.675083
v 0.339597 0.122000 -0.675083
v 0.367828 -0.122000 -0.666906
v 0.367828 0.122000 -0.666906
v 0.392778 -0.122000 -0.656000
v 0.392778 0.122000 -0.656000
v 0.414519 -0.122000 -0.642677
v 0.414519 0.122000 -0.642677
v 0.433125 -0.122000 -0.627250
v 0.433125 0.122000 -0.627250
v 0.448668 -0.122000 -0.610031
v 0.448668 0.122000 -0.610031
v 0.461222 -0.122000 -0.591333
v 0.461222 0.122000 -0.591333
v 0.470859 -0.122000 -0.571469
v 0.470859 0.122000 -0.571469
v 0.477653 -0.122000 -0.550750
v 0.477653 0.122000 -0.550750
v 0.481675 -0.122000 -0.529490
v 0.481675 0.122000 -0.529490
v 0.483000 -0.122000 -0.508000
v 0.483000 0.122000 -0.508000
v 0.482310 -0.122000 -0.490766
v 0.482310 0.122000 -0.490766
v 0.480227 -0.122000 -0.474546
v 0.480227 0.122000 -0.474546
v 0.476734 -0.122000 -0.459312
v 0.476734 0.122000 -0.459312
v 0.471815 -0.122000 -0.445037
v 0.471815 0.122000 -0.445037
v 0.465451 -0.122000 -0.431692
v 0.465451 0.122000 -0.431692
v 0.457625 -0.122000 -0.419250
v 0.457625 0.122000 -0.419250
v 0.448320 -0.122000 -0.407683
v 0.448320 0.122000 -0.407683
v 0.437519 -0.122000 -0.396963
v 0.437519 0.122000 -0.396963
v 0.425203 -0.122000 -0.387063
v 0.425203 0.122000 -0.387063
v 0.411356 -0.122000 -0.377954
v 0.411356 0.122000 -0.377954
v 0.395961 -0.122000 -0.369609
v 0.395961 0.122000 -0.369609
v 0.379000 -0.122000 -0.362000
v 0.379000 0.122000 -0.362000
v 0.379000 -0.122000 -0.360000
v 0.379000 0.122000 -0.360000
v 0.403654 -0.122000 -0.354263
v 0.403654 0.122000 -0.354263
v 0.426565 -0.122000 -0.346606
v 0.426565 0.122000 -0.346606
v 0.447656 -0.122000 -0.337109
v 0.447656 0.122000 -0.337109
v 0.466852 -0.122000 -0.325852
v 0.466852 0.122000 -0.325852
v 0.484075 -0.122000 -0.312914
v 0.484075 0.122000 -0.312914
v 0.499250 -0.122000 -0.298375
v 0.499250 0.122000 -0.298375
v 0.512300 -0.122000 -0.282315
v 0.512300 0.122000 -0.282315
v 0.523148 -0.122000 -0.264815
v 0.523148 0.122000 -0.264815
v 0.531719 -0.122000 -0.245953
v 0.531719 0.122000 -0.245953
v 0.537935 -0.122000 -0.225810
v 0.537935 0.122000 -0.225810
v 0.541721 -0.122000 -0.204466
v 0.541721 0.122000 -0.204466
v 0.543000 -0.122000 -0.182000
v 0.543000 0.122000 -0.182000
v 0.541662 -0.122000 -0.160773
v 0.541662 0.122000 -0.160773
v 0.537542 -0.122000 -0.139352
v 0.537542 0.122000 -0.139352
v 0.530484 -0.122000 -0.118125
v 0.530484 0.122000 -0.118125
v 0.520333 -0.122000 -0.097481
v 0.520333 0.122000 -0.097481
v 0.506932 -0.122000 -0.077810
v 0.506932 0.122000 -0.077810
v 0.490125 -0.122000 -0.059500
v 0.490125 0.122000 -0.059500
v 0.469755 -0.122000 -0.042940
v 0.469755 0.122000 -0.042940
v 0.445667 -0.122000 -0.028519
v 0.445667 0.122000 -0.028519
v 0.417703 -0.122000 -0.016625
v 0.417703 0.122000 -0.016625
v 0.385708 -0.122000 -0.007648
v 0.385708 0.122000 -0.007648
v 0.349526 -0.122000 -0.001977
v 0.349526 0.122000 -0.001977
v 0.309000 -0.122000 0.000000
v 0.309000 0.122000 -0.000000
v 0.075000 -0.122000 0.000000
v 0.075000 0.122000 -0.000000
v 0.075000 -0.122000 -0.682000
v 0.075000 0.122000 -0.682000
v 0.238000 -0.122000 -0.390000
v 0.238000 0.122000 -0.390000
v 0.261210 -0.122000 -0.390751
v 0.261210 0.122000 -0.390751
v 0.282347 -0.122000 -0.393005
v 0.282347 0.122000 -0.393005
v 0.301422 -0.122000 -0.396766
v 0.301422 0.122000 -0.396766
v 0.318444 -0.122000 -0.402037
v 0.318444 0.122000 -0.402037
v 0.333425 -0.122000 -0.408822
v 0.333425 0.122000 -0.408822
v 0.346375 -0.122000 -0.417125
v 0.346375 0.122000 -0.417125
v 0.357304 -0.122000 -0.426948
v 0.357304 0.122000 -0.426948
v 0.366222 -0.122000 -0.438296
v 0.366222 0.122000 -0.438296
v 0.373141 -0.122000 -0.451172
v 0.373141 0.122000 -0.451172
v 0.378069 -0.122000 -0.465579
v 0.378069 0.122000 -0.465579
v 0.381019 -0.122000 -0.481520
v 0.381019 0.122000 -0.481520
v 0.382000 -0.122000 -0.499000
v 0.382000 0.122000 -0.499000
v 0.381377 -0.122000 -0.511583
v 0.381377 0.122000 -0.511583
v 0.379435 -0.122000 -0.523745
v 0.379435 0.122000 -0.523745
v 0.376063 -0.122000 -0.535359
v 0.376063 0.122000 -0.535359
v 0.371148 -0.122000 -0.546296
v 0.371148 0.122000 -0.546296
v 0.364581 -0.122000 -0.556428
v 0.364581 0.122000 -0.556428
v 0.356250 -0.122000 -0.565625
v 0.356250 0.122000 -0.565625
v 0.346044 -0.122000 -0.573760
v 0.346044 0.122000 -0.573760
v 0.333852 -0.122000 -0.580704
v 0.333852 0.122000 -0.580704
v 0.319563 -0.122000 -0.586328
v 0.319563 0.122000 -0.586328
v 0.303065 -0.122000 -0.590505
v 0.303065 0.122000 -0.590505
v 0.284248 -0.122000 -0.593105
v 0.284248 0.122000 -0.593105
v 0.263000 -0.122000 -0.594000
v 0.263000 0.122000 -0.594000
v 0.173000 -0.122000 -0.594000
v 0.173000 0.122000 -0.594000
v 0.173000 -0.122000 -0.390000
v 0.173000 0.122000 -0.390000
v 0.296000 -0.122000 -0.088000
v 0.296000 0.122000 -0.088000
v 0.323031 -0.122000 -0.089151
v 0.323031 0.122000 -0.089151
v 0.346745 -0.122000 -0.092458
v 0.346745 0.122000 -0.092458
v 0.367328 -0.122000 -0.097703
v 0.367328 0.122000 -0.097703
v 0.384963 -0.122000 -0.104667
v 0.384963 0.122000 -0.104667
v 0.399834 -0.122000 -0.113130
v 0.399834 0.122000 -0.113130
v 0.412125 -0.122000 -0.122875
v 0.412125 0.122000 -0.122875
v 0.422020 -0.122000 -0.133682
v 0.422020 0.122000 -0.133682
v 0.429704 -0.122000 -0.145333
v 0.429704 0.122000 -0.145333
v 0.435359 -0.122000 -0.157609
v 0.435359 0.122000 -0.157609
v 0.439171 -0.122000 -0.170292
v 0.439171 0.122000 -0.170292
v 0.441324 -0.122000 -0.183161
v 0.441324 0.122000 -0.183161
v 0.442000 -0.122000 -0.196000
v 0.442000 0.122000 -0.196000
v 0.440996 -0.122000 -0.211110
v 0.440996 0.122000 -0.211110
v 0.437968 -0.122000 -0.225380
v 0.437968 0.122000 -0.225380
v 0.432891 -0.122000 -0.238719
v 0.432891 0.122000 -0.238719
v 0.425741 -0.122000 -0.251037
v 0.425741 0.122000 -0.251037
v 0.416494 -0.122000 -0.262244
v 0.416494 0.122000 -0.262244
v 0.405125 -0.122000 -0.272250
v 0.405125 0.122000 -0.272250
v 0.391611 -0.122000 -0.280964
v 0.391611 0.122000 -0.280964
v 0.375926 -0.122000 -0.288296
v 0.375926 0.122000 -0.288296
v 0.358047 -0.122000 -0.294156
v 0.358047 0.122000 -0.294156
v 0.337949 -0.122000 -0.298454
v 0.337949 0.122000 -0.298454
v 0.315608 -0.122000 -0.301098
v 0.315608 0.122000 -0.301098
v 0.291000 -0.122000 -0.302000
v 0.291000 0.122000 -0.302000
v 0.173000 -0.122000 -0.302000
v 0.173000 0.122000 -0.302000
v 0.173000 -0.122000 -0.088000
v 0.173000 0.122000 -0.088000
vn 0.000000 1.000000 0.000000
vn 0.000000 1.000000 -0.000001
vn 0.050810 0.000000 -0.998708
vn 0.160483 0.000000 -0.987039
vn 0.278215 0.000000 -0.960519
vn 0.400536 0.000000 -0.916281
vn 0.522492 0.000000 -0.852644
vn 0.638282 0.000000 -0.769803
vn 0.742296 0.000000 -0.670072
vn 0.830232 0.000000 -0.557419
vn 0.899710 0.000000 -0.436488
vn 0.950224 0.000000 -0.311566
vn 0.982568 0.000000 -0.185906
vn 0.998106 0.000000 -0.061525
vn 0.999199 0.000000 0.040029
vn 0.991856 0.000000 0.127362
vn 0.974713 0.000000 0.223461
vn 0.945435 0.000000 0.325812
vn 0.902616 0.000000 0.430446
vn 0.846482 0.000000 0.532418
vn 0.779181 0.000000 0.626799
vn 0.704421 0.000000 0.709783
vn 0.626551 0.000000 0.779381
vn 0.549581 0.000000 0.835441
vn 0.476540 0.000000 0.879153
vn 0.409302 0.000000 0.912399
vn 1.000000 0.000000 0.000000
vn 0.226635 0.000000 -0.973980
vn 0.316967 0.000000 -0.948436
vn 0.410579 0.000000 -0.911825
vn 0.505884 0.000000 -0.862601
vn 0.600610 0.000000 -0.799542
vn 0.691813 0.000000 -0.722077
vn 0.776082 0.000000 -0.630632
vn 0.849945 0.000000 -0.526871
vn 0.910419 0.000000 -0.413688
vn 0.955531 0.000000 -0.294891
vn 0.984631 0.000000 -0.174647
vn 0.998384 0.000000 -0.056836
vn 0.998018 0.000000 0.062934
vn 0.982004 0.000000 0.188862
vn 0.948929 0.000000 0.315491
vn 0.897376 0.000000 0.441266
vn 0.826447 0.000000 0.563015
vn 0.736693 0.000000 0.676227
vn 0.630816 0.000000 0.775933
vn 0.513662 0.000000 0.857993
vn 0.391392 0.000000 0.920224
vn 0.270141 0.000000 0.962821
vn 0.154852 0.000000 0.987938
vn 0.048722 0.000000 0.998812
vn 0.000000 0.000000 1.000000
vn -1.000000 0.000000 0.000000
vn 0.000000 0.000000 -1.000000
vn -0.032321 0.000000 -0.999478
vn -0.106038 0.000000 -0.994362
vn -0.193448 0.000000 -0.981111
vn -0.295812 0.000000 -0.955246
vn -0.412583 0.000000 -0.910920
vn -0.539740 0.000000 -0.841832
vn -0.668497 0.000000 -0.743715
vn -0.786242 0.000000 -0.617919
vn -0.880888 0.000000 -0.473325
vn -0.946160 0.000000 -0.323698
vn -0.983309 0.000000 -0.181941
vn -0.998429 0.000000 -0.056029
vn -0.998778 0.000000 0.049427
vn -0.987490 0.000000 0.157682
vn -0.960327 0.000000 0.278878
vn -0.912148 0.000000 0.409860
vn -0.839134 0.000000 0.543925
vn -0.741150 0.000000 0.671339
vn -0.623294 0.000000 0.781988
vn -0.494900 0.000000 0.868950
vn -0.366258 0.000000 0.930513
vn -0.245414 0.000000 0.969418
vn -0.136879 0.000000 0.990588
vn -0.042097 0.000000 0.999114
vn -0.042545 0.000000 -0.999095
vn -0.138125 0.000000 -0.990415
vn -0.246924 0.000000 -0.969035
vn -0.367277 0.000000 -0.930112
vn -0.494634 0.000000 -0.869101
vn -0.621265 0.000000 -0.783601
vn -0.737542 0.000000 -0.675301
vn -0.834815 0.000000 -0.550531
vn -0.908246 0.000000 -0.418437
vn -0.957676 0.000000 -0.287849
vn -0.986304 0.000000 -0.164939
vn -0.998615 0.000000 -0.052621
vn -0.997800 0.000000 0.066303
vn -0.978214 0.000000 0.207600
vn -0.934595 0.000000 0.355714
vn -0.864871 0.000000 0.501995
vn -0.771332 0.000000 0.636433
vn -0.660680 0.000000 0.750667
vn -0.541912 0.000000 0.840435
vn -0.423487 0.000000 0.905902
vn -0.311452 0.000000 0.950262
vn -0.209101 0.000000 0.977894
vn -0.117558 0.000000 0.993066
vn -0.036614 0.000000 0.999330
usemtl (null)
s off
f 51//1 78//1 52//1
f 78//1 1//1 52//1
f 2//1 1//1 78//1
f 78//1 3//1 2//1
f 78//1 4//1 3//1
f 78//1 5//1 4//1
f 78//1 6//1 5//1
f 78//1 7//1 6//1
f 78//1 8//1 7//1
f 78//1 77//1 8//1
f 77//1 9//1 8//1
f 51//1 79//1 78//1
f 76//1 9//1 77//1
f 75//1 9//1 76//1
f 75//1 10//1 9//1
f 74//1 10//1 75//1
f 73//1 10//1 74//1
f 72//1 10//1 73//1
f 71//1 10//1 72//1
f 71//1 11//1 10//1
f 70//1 11//1 71//1
f 69//1 11//1 70//1
f 69//1 12//1 11//1
f 68//1 12//1 69//1
f 67//1 12//1 68//1
f 67//1 13//1 12//1
f 66//1 13//1 67//1
f 65//1 13//1 66//1
f 65//1 14//1 13//1
f 64//1 14//1 65//1
f 64//1 15//1 14//1
f 63//1 15//1 64//1
f 63//1 16//1 15//1
f 62//1 16//1 63//1
f 62//1 17//1 16//1
f 61//1 17//1 62//1
f 61//1 18//1 17//1
f 60//1 18//1 61//1
f 60//2 19//2 18//2
f 59//2 19//2 60//2
f 59//1 20//1 19//1
f 58//1 20//1 59//1
f 57//1 20//1 58//1
f 57//1 21//1 20//1
f 56//1 21//1 57//1
f 56//1 22//1 21//1
f 55//1 22//1 56//1
f 54//1 22//1 55//1
f 53//1 22//1 54//1
f 51//1 105//1 79//1
f 105//1 53//1 79//1
f 105//1 22//1 53//1
f 105//1 23//1 22//1
f 105//1 24//1 23//1
f 105//1 25//1 24//1
f 105//1 26//1 25//1
f 105//1 27//1 26//1
f 105//1 28//1 27//1
f 105//1 29//1 28//1
f 105//1 30//1 29//1
f 105//1 31//1 30//1
f 105//1 104//1 31//1
f 104//1 32//1 31//1
f 51//1 106//1 105//1
f 103//1 32//1 104//1
f 102//1 32//1 103//1
f 101//1 32//1 102//1
f 101//1 33//1 32//1
f 100//1 33//1 101//1
f 99//1 33//1 100//1
f 99//1 34//1 33//1
f 98//1 34//1 99//1
f 97//1 34//1 98//1
f 97//1 35//1 34//1
f 96//2 35//2 97//2
f 95//1 35//1 96//1
f 95//1 36//1 35//1
f 94//1 36//1 95//1
f 94//1 37//1 36//1
f 93//1 37//1 94//1
f 92//1 37//1 93//1
f 92//1 38//1 37//1
f 91//1 38//1 92//1
f 90//1 38//1 91//1
f 90//1 39//1 38//1
f 89//1 39//1 90//1
f 89//1 40//1 39//1
f 88//1 40//1 89//1
f 87//1 40//1 88//1
f 87//1 41//1 40//1
f 86//1 41//1 87//1
f 85//1 41//1 86//1
f 85//1 42//1 41//1
f 84//1 42//1 85//1
f 83//1 42//1 84//1
f 82//1 42//1 83//1
f 82//1 43//1 42//1
f 81//1 43//1 82//1
f 80//1 43//1 81//1
f 51//1 80//1 106//1
f 51//1 43//1 80//1
f 51//1 44//1 43//1
f 51//1 45//1 44//1
f 51//1 46//1 45//1
f 51//1 47//1 46//1
f 51//1 48//1 47//1
f 51//1 49//1 48//1
f 51//1 50//1 49//1
f 157//1 184//1 158//1
f 184//1 107//1 158//1
f 184//1 108//1 107//1
f 184//1 109//1 108//1
f 184//1 110//1 109//1
f 184//1 111//1 110//1
f 184//1 112//1 111//1
f 184//1 113//1 112//1
f 184//1 114//1 113//1
f 184//1 183//1 114//1
f 183//1 115//1 114//1
f 157//1 185//1 184//1
f 182//1 115//1 183//1
f 181//1 115//1 182//1
f 181//1 116//1 115//1
f 180//1 116//1 181//1
f 179//1 116//1 180//1
f 178//1 116//1 179//1
f 177//1 116//1 178//1
f 177//1 117//1 116//1
f 176//1 117//1 177//1
f 175//1 117//1 176//1
f 175//1 118//1 117//1
f 174//1 118//1 175//1
f 173//1 118//1 174//1
f 173//1 119//1 118//1
f 172//1 119//1 173//1
f 171//1 119//1 172//1
f 171//1 120//1 119//1
f 170//1 120//1 171//1
f 170//1 121//1 120//1
f 169//1 121//1 170//1
f 169//1 122//1 121//1
f 168//1 122//1 169//1
f 168//1 123//1 122//1
f 167//1 123//1 168//1
f 167//1 124//1 123//1
f 166//1 124//1 167//1
f 166//2 125//2 124//2
f 165//2 125//2 166//2
f 165//1 126//1 125//1
f 164//1 126//1 165//1
f 163//1 126//1 164//1
f 163//1 127//1 126//1
f 162//1 127//1 163//1
f 162//1 128//1 127//1
f 161//1 128//1 162//1
f 160//1 128//1 161//1
f 159//1 128//1 160//1
f 157//1 211//1 185//1
f 211//1 159//1 185//1
f 211//1 128//1 159//1
f 211//1 129//1 128//1
f 211//1 130//1 129//1
f 211//1 131//1 130//1
f 211//1 132//1 131//1
f 211//1 133//1 132//1
f 211//1 134//1 133//1
f 211//1 135//1 134//1
f 211//1 136//1 135//1
f 211//1 137//1 136//1
f 211//1 210//1 137//1
f 210//1 138//1 137//1
f 157//1 212//1 211//1
f 209//1 138//1 210//1
f 208//1 138//1 209//1
f 207//1 138//1 208//1
f 207//1 139//1 138//1
f 206//1 139//1 207//1
f 205//1 139//1 206//1
f 205//1 140//1 139//1
f 204//1 140//1 205//1
f 203//1 140//1 204//1
f 203//1 141//1 140//1
f 202//2 141//2 203//2
f 201//1 141//1 202//1
f 201//1 142//1 141//1
f 200//1 142//1 201//1
f 200//1 143//1 142//1
f 199//1 143//1 200//1
f 198//1 143//1 199//1
f 198//1 144//1 143//1
f 197//1 144//1 198//1
f 196//1 144//1 197//1
f 196//1 145//1 144//1
f 195//1 145//1 196//1
f 195//1 146//1 145//1
f 194//1 146//1 195//1
f 193//1 146//1 194//1
f 193//1 147//1 146//1
f 192//1 147//1 193//1
f 191//1 147//1 192//1
f 191//1 148//1 147//1
f 190//1 148//1 191//1
f 189//1 148//1 190//1
f 188//1 148//1 189//1
f 188//1 149//1 148//1
f 187//1 149//1 188//1
f 186//1 149//1 187//1
f 157//1 186//1 212//1
f 157//1 149//1 186//1
f 157//1 150//1 149//1
f 157//1 151//1 150//1
f 157//1 152//1 151//1
f 157//1 153//1 152//1
f 157//1 154//1 153//1
f 157//1 155//1 154//1
f 157//1 156//1 155//1
f 214//3 216//3 215//3 213//3
f 216//4 218//4 217//4 215//4
f 218//5 220//5 219//5 217//5
f 220//6 222//6 221//6 219//6
f 222//7 224//7 223//7 221//7
f 224//8 226//8 225//8 223//8
f 226//9 228//9 227//9 225//9
f 228//10 230//10 229//10 227//10
f 230//11 232//11 231//11 229//11
f 232//12 234//12 233//12 231//12
f 234//13 236//13 235//13 233//13
f 236//14 238//14 237//14 235//14
f 238//15 240//15 239//15 237//15
f 240//16 242//16 241//16 239//16
f 242//17 244//17 243//17 241//17
f 244//18 246//18 245//18 243//18
f 246//19 248//19 247//19 245//19
f 248//20 250//20 249//20 247//20
f 250//21 252//21 251//21 249//21
f 252//22 254//22 253//22 251//22
f 254//23 256//23 255//23 253//23
f 256//24 258//24 257//24 255//24
f 258//25 260//25 259//25 257//25
f 260//26 262//26 261//26 259//26
f 262//27 264//27 263//27 261//27
f 264//28 266//28 265//28 263//28
f 266//29 268//29 267//29 265//29
f 268//30 270//30 269//30 267//30
f 270//31 272//31 271//31 269//31
f 272//32 274//32 273//32 271//32
f 274//33 276//33 275//33 273//33
f 276//34 278//34 277//34 275//34
f 278//35 280//35 279//35 277//35
f 280//36 282//36 281//36 279//36
f 282//37 284//37 283//37 281//37
f 284//38 286//38 285//38 283//38
f 286//39 288//39 287//39 285//39
f 288//40 290//40 289//40 287//40
f 290//41 292//41 291//41 289//41
f 292//42 294//42 293//42 291//42
f 294//43 296//43 295//43 293//43
f 296//44 298//44 297//44 295//44
f 298//45 300//45 299//45 297//45
f 300//46 302//46 301//46 299//46
f 302//47 304//47 303//47 301//47
f 304//48 306//48 305//48 303//48
f 306//49 308//49 307//49 305//49
f 308//50 310//50 309//50 307//50
f 310//51 312//51 311//51 309//51
f 312//52 314//52 313//52 311//52
f 314//53 316//53 315//53 313//53
f 316//54 214//54 213//54 315//54
f 318//55 320//55 319//55 317//55
f 320//56 322//56 321//56 319//56
f 322//57 324//57 323//57 321//57
f 324//58 326//58 325//58 323//58
f 326//59 328//59 327//59 325//59
f 328//60 330//60 329//60 327//60
f 330//61 332//61 331//61 329//61
f 332//62 334//62 333//62 331//62
f 334//63 336//63 335//63 333//63
f 336//64 338//64 337//64 335//64
f 338//65 340//65 339//65 337//65
f 340//66 342//66 341//66 339//66
f 342//67 344//67 343//67 341//67
f 344//68 346//68 345//68 343//68
f 346//69 348//69 347//69 345//69
f 348//70 350//70 349//70 347//70
f 350//71 352//71 351//71 349//71
f 352//72 354//72 353//72 351//72
f 354//73 356//73 355//73 353//73
f 356//74 358//74 357//74 355//74
f 358//75 360//75 359//75 357//75
f 360//76 362//76 361//76 359//76
f 362//77 364//77 363//77 361//77
f 364//78 366//78 365//78 363//78
f 366//52 368//52 367//52 365//52
f 368//27 370//27 369//27 367//27
f 370//54 318//54 317//54 369//54
f 372//79 374//79 373//79 371//79
f 374//80 376//80 375//80 373//80
f 376//81 378//81 377//81 375//81
f 378//82 380//82 379//82 377//82
f 380//83 382//83 381//83 379//83
f 382//84 384//84 383//84 381//84
f 384//85 386//85 385//85 383//85
f 386//86 388//86 387//86 385//86
f 388//87 390//87 389//87 387//87
f 390//88 392//88 391//88 389//88
f 392//89 394//89 393//89 391//89
f 394//90 396//90 395//90 393//90
f 396//91 398//91 397//91 395//91
f 398//92 400//92 399//92 397//92
f 400//93 402//93 401//93 399//93
f 402//94 404//94 403//94 401//94
f 404//95 406//95 405//95 403//95
f 406//96 408//96 407//96 405//96
f 408//97 410//97 409//97 407//97
f 410//98 412//98 411//98 409//98
f 412//99 414//99 413//99 411//99
f 414//100 416//100 415//100 413//100
f 416//101 418//101 417//101 415//101
f 418//102 420//102 419//102 417//102
f 420//52 422//52 421//52 419//52
f 422//27 424//27 423//27 421//27
f 424//54 372//54 371//54 423//54
