# Blender3D v247 OBJ File: 
# www.blender3d.org
o Font_Text
v 0.635239 0.122000 -0.541691
v 0.614912 0.122000 -0.552273
v 0.594953 0.122000 -0.561766
v 0.575296 0.122000 -0.570185
v 0.555876 0.122000 -0.577549
v 0.536625 0.122000 -0.583875
v 0.517479 0.122000 -0.589180
v 0.498370 0.122000 -0.593482
v 0.479234 0.122000 -0.596797
v 0.460005 0.122000 -0.599144
v 0.440615 0.122000 -0.600539
v 0.421000 0.122000 -0.601000
v 0.382877 0.122000 -0.598729
v 0.346685 0.122000 -0.592083
v 0.312688 0.122000 -0.581313
v 0.281148 0.122000 -0.566667
v 0.252331 0.122000 -0.548396
v 0.226500 0.122000 -0.526750
v 0.203919 0.122000 -0.501979
v 0.184852 0.122000 -0.474333
v 0.169563 0.122000 -0.444063
v 0.158315 0.122000 -0.411417
v 0.151373 0.122000 -0.376646
v 0.149000 0.122000 -0.340000
v 0.151299 0.122000 -0.302763
v 0.158056 0.122000 -0.267690
v 0.169063 0.122000 -0.234984
v 0.184111 0.122000 -0.204852
v 0.202993 0.122000 -0.177497
v 0.225500 0.122000 -0.153125
v 0.251424 0.122000 -0.131940
v 0.280556 0.122000 -0.114148
v 0.312688 0.122000 -0.099953
v 0.347611 0.122000 -0.089560
v 0.385118 0.122000 -0.083174
v 0.425000 0.122000 -0.081000
v 0.444388 0.122000 -0.081560
v 0.464019 0.122000 -0.083232
v 0.483844 0.122000 -0.086000
v 0.503815 0.122000 -0.089852
v 0.523883 0.122000 -0.094773
v 0.544000 0.122000 -0.100750
v 0.564117 0.122000 -0.107769
v 0.584185 0.122000 -0.115815
v 0.604156 0.122000 -0.124875
v 0.623982 0.122000 -0.134935
v 0.643612 0.122000 -0.145981
v 0.663000 0.122000 -0.158000
v 0.663000 0.122000 -0.051000
v 0.646109 0.122000 -0.042467
v 0.628870 0.122000 -0.034403
v 0.611188 0.122000 -0.026859
v 0.592963 0.122000 -0.019889
v 0.574100 0.122000 -0.013543
v 0.554500 0.122000 -0.007875
v 0.534067 0.122000 -0.002936
v 0.512704 0.122000 0.001222
v 0.490313 0.122000 0.004547
v 0.466796 0.122000 0.006986
v 0.442058 0.122000 0.008488
v 0.416000 0.122000 0.009000
v 0.354981 0.122000 0.005041
v 0.299852 0.122000 -0.006255
v 0.250500 0.122000 -0.024016
v 0.206815 0.122000 -0.047370
v 0.168685 0.122000 -0.075447
v 0.136000 0.122000 -0.107375
v 0.108648 0.122000 -0.142282
v 0.086519 0.122000 -0.179296
v 0.069500 0.122000 -0.217547
v 0.057481 0.122000 -0.256162
v 0.050352 0.122000 -0.294270
v 0.048000 0.122000 -0.331000
v 0.051215 0.122000 -0.381778
v 0.060634 0.122000 -0.429889
v 0.075922 0.122000 -0.475000
v 0.096741 0.122000 -0.516778
v 0.122754 0.122000 -0.554889
v 0.153625 0.122000 -0.589000
v 0.189017 0.122000 -0.618778
v 0.228593 0.122000 -0.643889
v 0.272016 0.122000 -0.664000
v 0.318949 0.122000 -0.678778
v 0.369056 0.122000 -0.687889
v 0.422000 0.122000 -0.691000
v 0.439533 0.122000 -0.690643
v 0.457181 0.122000 -0.689560
v 0.475016 0.122000 -0.687734
v 0.493111 0.122000 -0.685148
v 0.511540 0.122000 -0.681784
v 0.530375 0.122000 -0.677625
v 0.549689 0.122000 -0.672653
v 0.569556 0.122000 -0.666852
v 0.590047 0.122000 -0.660203
v 0.611236 0.122000 -0.652690
v 0.633196 0.122000 -0.644295
v 0.656000 0.122000 -0.635000
v 0.656000 0.122000 -0.530000
v 0.635239 -0.122000 -0.541691
v 0.614912 -0.122000 -0.552273
v 0.594953 -0.122000 -0.561766
v 0.575296 -0.122000 -0.570185
v 0.555876 -0.122000 -0.577549
v 0.536625 -0.122000 -0.583875
v 0.517479 -0.122000 -0.589180
v 0.498370 -0.122000 -0.593482
v 0.479234 -0.122000 -0.596797
v 0.460005 -0.122000 -0.599144
v 0.440615 -0.122000 -0.600539
v 0.421000 -0.122000 -0.601000
v 0.382877 -0.122000 -0.598729
v 0.346685 -0.122000 -0.592083
v 0.312688 -0.122000 -0.581313
v 0.281148 -0.122000 -0.566667
v 0.252331 -0.122000 -0.548396
v 0.226500 -0.122000 -0.526750
v 0.203919 -0.122000 -0.501979
v 0.184852 -0.122000 -0.474333
v 0.169563 -0.122000 -0.444063
v 0.158315 -0.122000 -0.411417
v 0.151373 -0.122000 -0.376646
v 0.149000 -0.122000 -0.340000
v 0.151299 -0.122000 -0.302763
v 0.158056 -0.122000 -0.267690
v 0.169063 -0.122000 -0.234984
v 0.184111 -0.122000 -0.204852
v 0.202993 -0.122000 -0.177497
v 0.225500 -0.122000 -0.153125
v 0.251424 -0.122000 -0.131940
v 0.280556 -0.122000 -0.114148
v 0.312688 -0.122000 -0.099953
v 0.347611 -0.122000 -0.089560
v 0.385118 -0.122000 -0.083174
v 0.425000 -0.122000 -0.081000
v 0.444388 -0.122000 -0.081560
v 0.464019 -0.122000 -0.083231
v 0.483844 -0.122000 -0.086000
v 0.503815 -0.122000 -0.089852
v 0.523883 -0.122000 -0.094773
v 0.544000 -0.122000 -0.100750
v 0.564117 -0.122000 -0.107769
v 0.584185 -0.122000 -0.115815
v 0.604156 -0.122000 -0.124875
v 0.623982 -0.122000 -0.134935
v 0.643612 -0.122000 -0.145981
v 0.663000 -0.122000 -0.158000
v 0.663000 -0.122000 -0.051000
v 0.646109 -0.122000 -0.042467
v 0.628870 -0.122000 -0.034403
v 0.611188 -0.122000 -0.026859
v 0.592963 -0.122000 -0.019889
v 0.574100 -0.122000 -0.013543
v 0.554500 -0.122000 -0.007875
v 0.534067 -0.122000 -0.002936
v 0.512704 -0.122000 0.001222
v 0.490313 -0.122000 0.004547
v 0.466796 -0.122000 0.006986
v 0.442058 -0.122000 0.008488
v 0.416000 -0.122000 0.009000
v 0.354981 -0.122000 0.005041
v 0.299852 -0.122000 -0.006255
v 0.250500 -0.122000 -0.024016
v 0.206815 -0.122000 -0.047370
v 0.168685 -0.122000 -0.075447
v 0.136000 -0.122000 -0.107375
v 0.108648 -0.122000 -0.142282
v 0.086519 -0.122000 -0.179296
v 0.069500 -0.122000 -0.217547
v 0.057481 -0.122000 -0.256162
v 0.050352 -0.122000 -0.294270
v 0.048000 -0.122000 -0.331000
v 0.051215 -0.122000 -0.381778
v 0.060634 -0.122000 -0.429889
v 0.075922 -0.122000 -0.475000
v 0.096741 -0.122000 -0.516778
v 0.122754 -0.122000 -0.554889
v 0.153625 -0.122000 -0.589000
v 0.189017 -0.122000 -0.618778
v 0.228593 -0.122000 -0.643889
v 0.272016 -0.122000 -0.664000
v 0.318949 -0.122000 -0.678778
v 0.369056 -0.122000 -0.687889
v 0.422000 -0.122000 -0.691000
v 0.439533 -0.122000 -0.690643
v 0.457181 -0.122000 -0.689560
v 0.475016 -0.122000 -0.687734
v 0.493111 -0.122000 -0.685148
v 0.511540 -0.122000 -0.681784
v 0.530375 -0.122000 -0.677625
v 0.549689 -0.122000 -0.672653
v 0.569556 -0.122000 -0.666852
v 0.590047 -0.122000 -0.660203
v 0.611236 -0.122000 -0.652690
v 0.633196 -0.122000 -0.644295
v 0.656000 -0.122000 -0.635000
v 0.656000 -0.122000 -0.530000
v 0.635239 -0.122000 -0.541691
v 0.635239 0.122000 -0.541691
v 0.614912 -0.122000 -0.552273
v 0.614912 0.122000 -0.552273
v 0.594953 -0.122000 -0.561766
v 0.594953 0.122000 -0.561766
v 0.575296 -0.122000 -0.570185
v 0.575296 0.122000 -0.570185
v 0.555876 -0.122000 -0.577549
v 0.555876 0.122000 -0.577549
v 0.536625 -0.122000 -0.583875
v 0.536625 0.122000 -0.583875
v 0.517479 -0.122000 -0.589180
v 0.517479 0.122000 -0.589180
v 0.498370 -0.122000 -0.593482
v 0.498370 0.122000 -0.593482
v 0.479234 -0.122000 -0.596797
v 0.479234 0.122000 -0.596797
v 0.460005 -0.122000 -0.599144
v 0.460005 0.122000 -0.599144
v 0.440615 -0.122000 -0.600539
v 0.440615 0.122000 -0.600539
v 0.421000 -0.122000 -0.601000
v 0.421000 0.122000 -0.601000
v 0.382877 -0.122000 -0.598729
v 0.382877 0.122000 -0.598729
v 0.346685 -0.122000 -0.592083
v 0.346685 0.122000 -0.592083
v 0.312688 -0.122000 -0.581313
v 0.312688 0.122000 -0.581313
v 0.281148 -0.122000 -0.566667
v 0.281148 0.122000 -0.566667
v 0.252331 -0.122000 -0.548396
v 0.252331 0.122000 -0.548396
v 0.226500 -0.122000 -0.526750
v 0.226500 0.122000 -0.526750
v 0.203919 -0.122000 -0.501979
v 0.203919 0.122000 -0.501979
v 0.184852 -0.122000 -0.474333
v 0.184852 0.122000 -0.474333
v 0.169563 -0.122000 -0.444063
v 0.169563 0.122000 -0.444063
v 0.158315 -0.122000 -0.411417
v 0.158315 0.122000 -0.411417
v 0.151373 -0.122000 -0.376646
v 0.151373 0.122000 -0.376646
v 0.149000 -0.122000 -0.340000
v 0.149000 0.122000 -0.340000
v 0.151299 -0.122000 -0.302763
v 0.151299 0.122000 -0.302763
v 0.158056 -0.122000 -0.267690
v 0.158056 0.122000 -0.267690
v 0.169063 -0.122000 -0.234984
v 0.169063 0.122000 -0.234984
v 0.184111 -0.122000 -0.204852
v 0.184111 0.122000 -0.204852
v 0.202993 -0.122000 -0.177497
v 0.202993 0.122000 -0.177497
v 0.225500 -0.122000 -0.153125
v 0.225500 0.122000 -0.153125
v 0.251424 -0.122000 -0.131940
v 0.251424 0.122000 -0.131940
v 0.280556 -0.122000 -0.114148
v 0.280556 0.122000 -0.114148
v 0.312688 -0.122000 -0.099953
v 0.312688 0.122000 -0.099953
v 0.347611 -0.122000 -0.089560
v 0.347611 0.122000 -0.089560
v 0.385118 -0.122000 -0.083174
v 0.385118 0.122000 -0.083174
v 0.425000 -0.122000 -0.081000
v 0.425000 0.122000 -0.081000
v 0.444388 -0.122000 -0.081560
v 0.444388 0.122000 -0.081560
v 0.464019 -0.122000 -0.083231
v 0.464019 0.122000 -0.083232
v 0.483844 -0.122000 -0.086000
v 0.483844 0.122000 -0.086000
v 0.503815 -0.122000 -0.089852
v 0.503815 0.122000 -0.089852
v 0.523883 -0.122000 -0.094773
v 0.523883 0.122000 -0.094773
v 0.544000 -0.122000 -0.100750
v 0.544000 0.122000 -0.100750
v 0.564117 -0.122000 -0.107769
v 0.564117 0.122000 -0.107769
v 0.584185 -0.122000 -0.115815
v 0.584185 0.122000 -0.115815
v 0.604156 -0.122000 -0.124875
v 0.604156 0.122000 -0.124875
v 0.623982 -0.122000 -0.134935
v 0.623982 0.122000 -0.134935
v 0.643612 -0.122000 -0.145981
v 0.643612 0.122000 -0.145981
v 0.663000 -0.122000 -0.158000
v 0.663000 0.122000 -0.158000
v 0.663000 -0.122000 -0.051000
v 0.663000 0.122000 -0.051000
v 0.646109 -0.122000 -0.042467
v 0.646109 0.122000 -0.042467
v 0.628870 -0.122000 -0.034403
v 0.628870 0.122000 -0.034403
v 0.611188 -0.122000 -0.026859
v 0.611188 0.122000 -0.026859
v 0.592963 -0.122000 -0.019889
v 0.592963 0.122000 -0.019889
v 0.574100 -0.122000 -0.013543
v 0.574100 0.122000 -0.013543
v 0.554500 -0.122000 -0.007875
v 0.554500 0.122000 -0.007875
v 0.534067 -0.122000 -0.002936
v 0.534067 0.122000 -0.002936
v 0.512704 -0.122000 0.001222
v 0.512704 0.122000 0.001222
v 0.490313 -0.122000 0.004547
v 0.490313 0.122000 0.004547
v 0.466796 -0.122000 0.006986
v 0.466796 0.122000 0.006986
v 0.442058 -0.122000 0.008488
v 0.442058 0.122000 0.008488
v 0.416000 -0.122000 0.009000
v 0.416000 0.122000 0.009000
v 0.354981 -0.122000 0.005041
v 0.354981 0.122000 0.005041
v 0.299852 -0.122000 -0.006255
v 0.299852 0.122000 -0.006255
v 0.250500 -0.122000 -0.024016
v 0.250500 0.122000 -0.024016
v 0.206815 -0.122000 -0.047370
v 0.206815 0.122000 -0.047370
v 0.168685 -0.122000 -0.075447
v 0.168685 0.122000 -0.075447
v 0.136000 -0.122000 -0.107375
v 0.136000 0.122000 -0.107375
v 0.108648 -0.122000 -0.142282
v 0.108648 0.122000 -0.142282
v 0.086519 -0.122000 -0.179296
v 0.086519 0.122000 -0.179296
v 0.069500 -0.122000 -0.217547
v 0.069500 0.122000 -0.217547
v 0.057481 -0.122000 -0.256162
v 0.057481 0.122000 -0.256162
v 0.050352 -0.122000 -0.294270
v 0.050352 0.122000 -0.294270
v 0.048000 -0.122000 -0.331000
v 0.048000 0.122000 -0.331000
v 0.051215 -0.122000 -0.381778
v 0.051215 0.122000 -0.381778
v 0.060634 -0.122000 -0.429889
v 0.060634 0.122000 -0.429889
v 0.075922 -0.122000 -0.475000
v 0.075922 0.122000 -0.475000
v 0.096741 -0.122000 -0.516778
v 0.096741 0.122000 -0.516778
v 0.122754 -0.122000 -0.554889
v 0.122754 0.122000 -0.554889
v 0.153625 -0.122000 -0.589000
v 0.153625 0.122000 -0.589000
v 0.189017 -0.122000 -0.618778
v 0.189017 0.122000 -0.618778
v 0.228593 -0.122000 -0.643889
v 0.228593 0.122000 -0.643889
v 0.272016 -0.122000 -0.664000
v 0.272016 0.122000 -0.664000
v 0.318949 -0.122000 -0.678778
v 0.318949 0.122000 -0.678778
v 0.369056 -0.122000 -0.687889
v 0.369056 0.122000 -0.687889
v 0.422000 -0.122000 -0.691000
v 0.422000 0.122000 -0.691000
v 0.439533 -0.122000 -0.690643
v 0.439533 0.122000 -0.690643
v 0.457181 -0.122000 -0.689560
v 0.457181 0.122000 -0.689560
v 0.475016 -0.122000 -0.687734
v 0.475016 0.122000 -0.687734
v 0.493111 -0.122000 -0.685148
v 0.493111 0.122000 -0.685148
v 0.511540 -0.122000 -0.681784
v 0.511540 0.122000 -0.681784
v 0.530375 -0.122000 -0.677625
v 0.530375 0.122000 -0.677625
v 0.549689 -0.122000 -0.672653
v 0.549689 0.122000 -0.672653
v 0.569556 -0.122000 -0.666852
v 0.569556 0.122000 -0.666852
v 0.590047 -0.122000 -0.660203
v 0.590047 0.122000 -0.660203
v 0.611236 -0.122000 -0.652690
v 0.611236 0.122000 -0.652690
v 0.633196 -0.122000 -0.644295
v 0.633196 0.122000 -0.644295
v 0.656000 -0.122000 -0.635000
v 0.656000 0.122000 -0.635000
v 0.656000 -0.122000 -0.530000
v 0.656000 0.122000 -0.530000
vn 0.000000 1.000000 0.000000
vn 0.000000 1.000000 -0.000001
vn 0.000000 1.000000 0.000002
vn -0.461790 0.000000 0.886989
vn -0.429499 0.000000 0.903067
vn -0.393730 0.000000 0.919226
vn -0.354549 0.000000 0.935037
vn -0.312180 0.000000 0.950023
vn -0.267015 0.000000 0.963692
vn -0.219616 0.000000 0.975586
vn -0.170711 0.000000 0.985321
vn -0.121133 0.000000 0.992636
vn -0.071772 0.000000 0.997421
vn -0.023507 0.000000 0.999724
vn 0.059458 0.000000 0.998231
vn 0.180607 0.000000 0.983555
vn 0.302017 0.000000 0.953303
vn 0.421172 0.000000 0.906981
vn 0.535470 0.000000 0.844554
vn 0.642283 0.000000 0.766467
vn 0.739018 0.000000 0.673686
vn 0.823198 0.000000 0.567754
vn 0.892604 0.000000 0.450841
vn 0.945458 0.000000 0.325745
vn 0.980646 0.000000 0.195790
vn 0.997910 0.000000 0.064611
vn 0.998100 0.000000 -0.061612
vn 0.981944 0.000000 -0.189173
vn 0.947765 0.000000 -0.318969
vn 0.894637 0.000000 -0.446794
vn 0.822979 0.000000 -0.568071
vn 0.734659 0.000000 -0.678437
vn 0.632779 0.000000 -0.774332
vn 0.521223 0.000000 -0.853420
vn 0.404097 0.000000 -0.914716
vn 0.285229 0.000000 -0.958459
vn 0.167846 0.000000 -0.985813
vn 0.054435 0.000000 -0.998517
vn -0.028883 0.000000 -0.999583
vn -0.084829 0.000000 -0.996395
vn -0.138304 0.000000 -0.990390
vn -0.189381 0.000000 -0.981904
vn -0.238171 0.000000 -0.971223
vn -0.284801 0.000000 -0.958587
vn -0.329414 0.000000 -0.944186
vn -0.372147 0.000000 -0.928174
vn -0.413139 0.000000 -0.910668
vn -0.452516 0.000000 -0.891756
vn -0.490395 0.000000 -0.871500
vn -0.526880 0.000000 -0.849939
vn 1.000000 0.000000 0.000000
vn 0.450904 0.000000 0.892572
vn 0.423732 0.000000 0.905787
vn 0.392382 0.000000 0.919802
vn 0.357240 0.000000 0.934013
vn 0.318835 0.000000 0.947810
vn 0.277825 0.000000 0.960632
vn 0.234962 0.000000 0.972005
vn 0.191046 0.000000 0.981581
vn 0.146870 0.000000 0.989156
vn 0.103172 0.000000 0.994663
vn 0.060593 0.000000 0.998163
vn 0.019651 0.000000 0.999807
vn -0.064743 0.000000 0.997902
vn -0.200724 0.000000 0.979648
vn -0.338624 0.000000 0.940922
vn -0.471468 0.000000 0.881883
vn -0.592945 0.000000 0.805243
vn -0.698769 0.000000 0.715348
vn -0.787139 0.000000 0.616776
vn -0.858301 0.000000 0.513147
vn -0.913650 0.000000 0.406503
vn -0.954822 0.000000 0.297177
vn -0.982945 0.000000 0.183898
vn -0.997956 0.000000 0.063900
vn -0.998002 0.000000 -0.063182
vn -0.981368 0.000000 -0.192140
vn -0.947093 0.000000 -0.320959
vn -0.895026 0.000000 -0.446013
vn -0.825940 0.000000 -0.563758
vn -0.741444 0.000000 -0.671015
vn -0.643809 0.000000 -0.765187
vn -0.535759 0.000000 -0.844371
vn -0.420258 0.000000 -0.907405
vn -0.300331 0.000000 -0.953835
vn -0.178899 0.000000 -0.983867
vn -0.058662 0.000000 -0.998278
vn 0.020359 0.000000 -0.999793
vn 0.061241 0.000000 -0.998123
vn 0.101840 0.000000 -0.994801
vn 0.141484 0.000000 -0.989941
vn 0.179574 0.000000 -0.983744
vn 0.215625 0.000000 -0.976476
vn 0.249281 0.000000 -0.968431
vn 0.280319 0.000000 -0.959907
vn 0.308626 0.000000 -0.951183
vn 0.334194 0.000000 -0.942504
vn 0.357091 0.000000 -0.934070
vn 0.377440 0.000000 -0.926034
vn -0.490656 0.000000 0.871353
usemtl (null)
s off
f 84//1 86//1 85//1
f 84//1 87//1 86//1
f 84//1 88//1 87//1
f 83//1 88//1 84//1
f 83//1 89//1 88//1
f 83//1 90//1 89//1
f 83//1 91//1 90//1
f 82//1 91//1 83//1
f 82//1 92//1 91//1
f 82//1 93//1 92//1
f 82//1 94//1 93//1
f 81//1 94//1 82//1
f 81//1 95//1 94//1
f 81//1 96//1 95//1
f 81//1 97//1 96//1
f 80//1 97//1 81//1
f 80//1 12//1 97//1
f 12//1 11//1 97//1
f 11//1 10//1 97//1
f 10//1 9//1 97//1
f 9//2 8//2 97//2
f 8//1 7//1 97//1
f 7//1 6//1 97//1
f 6//1 5//1 97//1
f 5//1 4//1 97//1
f 4//1 3//1 97//1
f 3//1 2//1 97//1
f 2//1 1//1 97//1
f 1//1 98//1 97//1
f 79//1 12//1 80//1
f 79//3 13//3 12//3
f 79//2 14//2 13//2
f 79//1 15//1 14//1
f 78//1 15//1 79//1
f 78//1 16//1 15//1
f 78//1 17//1 16//1
f 77//1 17//1 78//1
f 77//1 18//1 17//1
f 77//1 19//1 18//1
f 76//1 19//1 77//1
f 76//1 20//1 19//1
f 75//1 20//1 76//1
f 75//1 21//1 20//1
f 75//1 22//1 21//1
f 74//1 22//1 75//1
f 74//1 23//1 22//1
f 73//1 23//1 74//1
f 73//1 24//1 23//1
f 73//1 25//1 24//1
f 72//1 25//1 73//1
f 72//1 26//1 25//1
f 71//1 26//1 72//1
f 71//1 27//1 26//1
f 70//1 27//1 71//1
f 70//1 28//1 27//1
f 69//1 28//1 70//1
f 69//1 29//1 28//1
f 68//1 29//1 69//1
f 68//1 30//1 29//1
f 47//1 49//1 48//1
f 68//1 31//1 30//1
f 46//1 49//1 47//1
f 67//1 31//1 68//1
f 45//1 49//1 46//1
f 67//1 32//1 31//1
f 44//1 49//1 45//1
f 43//1 49//1 44//1
f 67//1 33//1 32//1
f 42//1 49//1 43//1
f 66//1 33//1 67//1
f 41//1 49//1 42//1
f 66//1 34//1 33//1
f 40//1 49//1 41//1
f 39//1 49//1 40//1
f 66//2 35//2 34//2
f 38//2 49//2 39//2
f 37//1 49//1 38//1
f 66//1 36//1 35//1
f 36//1 49//1 37//1
f 66//1 49//1 36//1
f 65//1 49//1 66//1
f 65//1 50//1 49//1
f 64//1 50//1 65//1
f 64//1 51//1 50//1
f 64//1 52//1 51//1
f 64//1 53//1 52//1
f 63//1 53//1 64//1
f 63//1 54//1 53//1
f 63//1 55//1 54//1
f 63//1 56//1 55//1
f 62//1 56//1 63//1
f 62//1 57//1 56//1
f 62//1 58//1 57//1
f 62//1 59//1 58//1
f 61//1 59//1 62//1
f 61//1 60//1 59//1
f 182//1 184//1 183//1
f 182//1 185//1 184//1
f 182//1 186//1 185//1
f 181//1 186//1 182//1
f 181//1 187//1 186//1
f 181//1 188//1 187//1
f 181//1 189//1 188//1
f 180//1 189//1 181//1
f 180//1 190//1 189//1
f 180//1 191//1 190//1
f 180//1 192//1 191//1
f 179//1 192//1 180//1
f 179//1 193//1 192//1
f 179//1 194//1 193//1
f 179//1 195//1 194//1
f 178//1 195//1 179//1
f 178//1 110//1 195//1
f 110//1 109//1 195//1
f 109//1 108//1 195//1
f 108//1 107//1 195//1
f 107//2 106//2 195//2
f 106//1 105//1 195//1
f 105//1 104//1 195//1
f 104//1 103//1 195//1
f 103//1 102//1 195//1
f 102//1 101//1 195//1
f 101//1 100//1 195//1
f 100//1 99//1 195//1
f 99//1 196//1 195//1
f 177//1 110//1 178//1
f 177//3 111//3 110//3
f 177//2 112//2 111//2
f 177//1 113//1 112//1
f 176//1 113//1 177//1
f 176//1 114//1 113//1
f 176//1 115//1 114//1
f 175//1 115//1 176//1
f 175//1 116//1 115//1
f 175//1 117//1 116//1
f 174//1 117//1 175//1
f 174//1 118//1 117//1
f 173//1 118//1 174//1
f 173//1 119//1 118//1
f 173//1 120//1 119//1
f 172//1 120//1 173//1
f 172//1 121//1 120//1
f 171//1 121//1 172//1
f 171//1 122//1 121//1
f 171//1 123//1 122//1
f 170//1 123//1 171//1
f 170//1 124//1 123//1
f 169//1 124//1 170//1
f 169//1 125//1 124//1
f 168//1 125//1 169//1
f 168//1 126//1 125//1
f 167//1 126//1 168//1
f 167//1 127//1 126//1
f 166//1 127//1 167//1
f 166//1 128//1 127//1
f 145//1 147//1 146//1
f 166//1 129//1 128//1
f 144//1 147//1 145//1
f 165//1 129//1 166//1
f 143//1 147//1 144//1
f 165//1 130//1 129//1
f 142//1 147//1 143//1
f 141//1 147//1 142//1
f 165//1 131//1 130//1
f 140//1 147//1 141//1
f 164//1 131//1 165//1
f 139//1 147//1 140//1
f 164//1 132//1 131//1
f 138//1 147//1 139//1
f 137//1 147//1 138//1
f 164//2 133//2 132//2
f 136//2 147//2 137//2
f 135//1 147//1 136//1
f 164//1 134//1 133//1
f 134//1 147//1 135//1
f 164//1 147//1 134//1
f 163//1 147//1 164//1
f 163//1 148//1 147//1
f 162//1 148//1 163//1
f 162//1 149//1 148//1
f 162//1 150//1 149//1
f 162//1 151//1 150//1
f 161//1 151//1 162//1
f 161//1 152//1 151//1
f 161//1 153//1 152//1
f 161//1 154//1 153//1
f 160//1 154//1 161//1
f 160//1 155//1 154//1
f 160//1 156//1 155//1
f 160//1 157//1 156//1
f 159//1 157//1 160//1
f 159//1 158//1 157//1
f 198//4 200//4 199//4 197//4
f 200//5 202//5 201//5 199//5
f 202//6 204//6 203//6 201//6
f 204//7 206//7 205//7 203//7
f 206//8 208//8 207//8 205//8
f 208//9 210//9 209//9 207//9
f 210//10 212//10 211//10 209//10
f 212//11 214//11 213//11 211//11
f 214//12 216//12 215//12 213//12
f 216//13 218//13 217//13 215//13
f 218//14 220//14 219//14 217//14
f 220//15 222//15 221//15 219//15
f 222//16 224//16 223//16 221//16
f 224//17 226//17 225//17 223//17
f 226//18 228//18 227//18 225//18
f 228//19 230//19 229//19 227//19
f 230//20 232//20 231//20 229//20
f 232//21 234//21 233//21 231//21
f 234//22 236//22 235//22 233//22
f 236//23 238//23 237//23 235//23
f 238//24 240//24 239//24 237//24
f 240//25 242//25 241//25 239//25
f 242//26 244//26 243//26 241//26
f 244//27 246//27 245//27 243//27
f 246//28 248//28 247//28 245//28
f 248//29 250//29 249//29 247//29
f 250//30 252//30 251//30 249//30
f 252//31 254//31 253//31 251//31
f 254//32 256//32 255//32 253//32
f 256//33 258//33 257//33 255//33
f 258//34 260//34 259//34 257//34
f 260//35 262//35 261//35 259//35
f 262//36 264//36 263//36 261//36
f 264//37 266//37 265//37 263//37
f 266//38 268//38 267//38 265//38
f 268//39 270//39 269//39 267//39
f 270//40 272//40 271//40 269//40
f 272//41 274//41 273//41 271//41
f 274//42 276//42 275//42 273//42
f 276//43 278//43 277//43 275//43
f 278//44 280//44 279//44 277//44
f 280//45 282//45 281//45 279//45
f 282//46 284//46 283//46 281//46
f 284//47 286//47 285//47 283//47
f 286//48 288//48 287//48 285//48
f 288//49 290//49 289//49 287//49
f 290//50 292//50 291//50 289//50
f 292//51 294//51 293//51 291//51
f 294//52 296//52 295//52 293//52
f 296//53 298//53 297//53 295//53
f 298//54 300//54 299//54 297//54
f 300//55 302//55 301//55 299//55
f 302//56 304//56 303//56 301//56
f 304//57 306//57 305//57 303//57
f 306//58 308//58 307//58 305//58
f 308//59 310//59 309//59 307//59
f 310//60 312//60 311//60 309//60
f 312//61 314//61 313//61 311//61
f 314//62 316//62 315//62 313//62
f 316//63 318//63 317//63 315//63
f 318//64 320//64 319//64 317//64
f 320//65 322//65 321//65 319//65
f 322//66 324//66 323//66 321//66
f 324//67 326//67 325//67 323//67
f 326//68 328//68 327//68 325//68
f 328//69 330//69 329//69 327//69
f 330//70 332//70 331//70 329//70
f 332//71 334//71 333//71 331//71
f 334//72 336//72 335//72 333//72
f 336//73 338//73 337//73 335//73
f 338//74 340//74 339//74 337//74
f 340//75 342//75 341//75 339//75
f 342//76 344//76 343//76 341//76
f 344//77 346//77 345//77 343//77
f 346//78 348//78 347//78 345//78
f 348//79 350//79 349//79 347//79
f 350//80 352//80 351//80 349//80
f 352//81 354//81 353//81 351//81
f 354//82 356//82 355//82 353//82
f 356//83 358//83 357//83 355//83
f 358//84 360//84 359//84 357//84
f 360//85 362//85 361//85 359//85
f 362//86 364//86 363//86 361//86
f 364//87 366//87 365//87 363//87
f 366//88 368//88 367//88 365//88
f 368//89 370//89 369//89 367//89
f 370//90 372//90 371//90 369//90
f 372//91 374//91 373//91 371//91
f 374//92 376//92 375//92 373//92
f 376//93 378//93 377//93 375//93
f 378//94 380//94 379//94 377//94
f 380//95 382//95 381//95 379//95
f 382//96 384//96 383//96 381//96
f 384//97 386//97 385//97 383//97
f 386//98 388//98 387//98 385//98
f 388//99 390//99 389//99 387//99
f 390//51 392//51 391//51 389//51
f 392//100 198//100 197//100 391//100
