# Blender3D v247 OBJ File: 
# www.blender3d.org
o Font_Text
v 0.341000 0.122000 -0.682000
v 0.401080 0.122000 -0.678365
v 0.455389 0.122000 -0.667921
v 0.504031 0.122000 -0.651359
v 0.547111 0.122000 -0.629370
v 0.584733 0.122000 -0.602645
v 0.617000 0.122000 -0.571875
v 0.644017 0.122000 -0.537751
v 0.665889 0.122000 -0.500963
v 0.682719 0.122000 -0.462203
v 0.694611 0.122000 -0.422162
v 0.701670 0.122000 -0.381531
v 0.704000 0.122000 -0.341000
v 0.701174 0.122000 -0.297528
v 0.692810 0.122000 -0.254977
v 0.679078 0.122000 -0.213891
v 0.660148 0.122000 -0.174815
v 0.636190 0.122000 -0.138295
v 0.607375 0.122000 -0.104875
v 0.573872 0.122000 -0.075101
v 0.535852 0.122000 -0.049519
v 0.493484 0.122000 -0.028672
v 0.446940 0.122000 -0.013106
v 0.396388 0.122000 -0.003367
v 0.342000 0.122000 -0.000000
v 0.076000 0.122000 -0.000000
v 0.076000 0.122000 -0.682000
v 0.330000 0.122000 -0.088000
v 0.382007 0.122000 -0.091374
v 0.427306 0.122000 -0.100907
v 0.466313 0.122000 -0.115719
v 0.499444 0.122000 -0.134926
v 0.527118 0.122000 -0.157647
v 0.549750 0.122000 -0.183000
v 0.567757 0.122000 -0.210103
v 0.581556 0.122000 -0.238074
v 0.591563 0.122000 -0.266031
v 0.598194 0.122000 -0.293093
v 0.601868 0.122000 -0.318376
v 0.603000 0.122000 -0.341000
v 0.601178 0.122000 -0.374758
v 0.595671 0.122000 -0.407310
v 0.586422 0.122000 -0.438328
v 0.573370 0.122000 -0.467481
v 0.556458 0.122000 -0.494440
v 0.535625 0.122000 -0.518875
v 0.510813 0.122000 -0.540455
v 0.481963 0.122000 -0.558852
v 0.449016 0.122000 -0.573734
v 0.411912 0.122000 -0.584773
v 0.370593 0.122000 -0.591638
v 0.325000 0.122000 -0.594000
v 0.174000 0.122000 -0.594000
v 0.174000 0.122000 -0.088000
v 0.341000 -0.122000 -0.682000
v 0.401080 -0.122000 -0.678365
v 0.455389 -0.122000 -0.667921
v 0.504031 -0.122000 -0.651359
v 0.547111 -0.122000 -0.629370
v 0.584733 -0.122000 -0.602645
v 0.617000 -0.122000 -0.571875
v 0.644017 -0.122000 -0.537751
v 0.665889 -0.122000 -0.500963
v 0.682719 -0.122000 -0.462203
v 0.694611 -0.122000 -0.422162
v 0.701670 -0.122000 -0.381531
v 0.704000 -0.122000 -0.341000
v 0.701174 -0.122000 -0.297528
v 0.692810 -0.122000 -0.254977
v 0.679078 -0.122000 -0.213891
v 0.660148 -0.122000 -0.174815
v 0.636190 -0.122000 -0.138295
v 0.607375 -0.122000 -0.104875
v 0.573872 -0.122000 -0.075101
v 0.535852 -0.122000 -0.049519
v 0.493484 -0.122000 -0.028672
v 0.446940 -0.122000 -0.013106
v 0.396388 -0.122000 -0.003367
v 0.342000 -0.122000 0.000000
v 0.076000 -0.122000 0.000000
v 0.076000 -0.122000 -0.682000
v 0.330000 -0.122000 -0.088000
v 0.382007 -0.122000 -0.091374
v 0.427306 -0.122000 -0.100907
v 0.466313 -0.122000 -0.115719
v 0.499444 -0.122000 -0.134926
v 0.527118 -0.122000 -0.157647
v 0.549750 -0.122000 -0.183000
v 0.567757 -0.122000 -0.210103
v 0.581556 -0.122000 -0.238074
v 0.591563 -0.122000 -0.266031
v 0.598194 -0.122000 -0.293093
v 0.601868 -0.122000 -0.318376
v 0.603000 -0.122000 -0.341000
v 0.601178 -0.122000 -0.374758
v 0.595671 -0.122000 -0.407310
v 0.586422 -0.122000 -0.438328
v 0.573370 -0.122000 -0.467481
v 0.556458 -0.122000 -0.494440
v 0.535625 -0.122000 -0.518875
v 0.510813 -0.122000 -0.540455
v 0.481963 -0.122000 -0.558852
v 0.449016 -0.122000 -0.573734
v 0.411912 -0.122000 -0.584773
v 0.370593 -0.122000 -0.591638
v 0.325000 -0.122000 -0.594000
v 0.174000 -0.122000 -0.594000
v 0.174000 -0.122000 -0.088000
v 0.341000 -0.122000 -0.682000
v 0.341000 0.122000 -0.682000
v 0.401080 -0.122000 -0.678365
v 0.401080 0.122000 -0.678365
v 0.455389 -0.122000 -0.667921
v 0.455389 0.122000 -0.667921
v 0.504031 -0.122000 -0.651359
v 0.504031 0.122000 -0.651359
v 0.547111 -0.122000 -0.629370
v 0.547111 0.122000 -0.629370
v 0.584733 -0.122000 -0.602645
v 0.584733 0.122000 -0.602645
v 0.617000 -0.122000 -0.571875
v 0.617000 0.122000 -0.571875
v 0.644017 -0.122000 -0.537751
v 0.644017 0.122000 -0.537751
v 0.665889 -0.122000 -0.500963
v 0.665889 0.122000 -0.500963
v 0.682719 -0.122000 -0.462203
v 0.682719 0.122000 -0.462203
v 0.694611 -0.122000 -0.422162
v 0.694611 0.122000 -0.422162
v 0.701670 -0.122000 -0.381531
v 0.701670 0.122000 -0.381531
v 0.704000 -0.122000 -0.341000
v 0.704000 0.122000 -0.341000
v 0.701174 -0.122000 -0.297528
v 0.701174 0.122000 -0.297528
v 0.692810 -0.122000 -0.254977
v 0.692810 0.122000 -0.254977
v 0.679078 -0.122000 -0.213891
v 0.679078 0.122000 -0.213891
v 0.660148 -0.122000 -0.174815
v 0.660148 0.122000 -0.174815
v 0.636190 -0.122000 -0.138295
v 0.636190 0.122000 -0.138295
v 0.607375 -0.122000 -0.104875
v 0.607375 0.122000 -0.104875
v 0.573872 -0.122000 -0.075101
v 0.573872 0.122000 -0.075101
v 0.535852 -0.122000 -0.049519
v 0.535852 0.122000 -0.049519
v 0.493484 -0.122000 -0.028672
v 0.493484 0.122000 -0.028672
v 0.446940 -0.122000 -0.013106
v 0.446940 0.122000 -0.013106
v 0.396388 -0.122000 -0.003367
v 0.396388 0.122000 -0.003367
v 0.342000 -0.122000 0.000000
v 0.342000 0.122000 -0.000000
v 0.076000 -0.122000 0.000000
v 0.076000 0.122000 -0.000000
v 0.076000 -0.122000 -0.682000
v 0.076000 0.122000 -0.682000
v 0.330000 -0.122000 -0.088000
v 0.330000 0.122000 -0.088000
v 0.382007 -0.122000 -0.091374
v 0.382007 0.122000 -0.091374
v 0.427306 -0.122000 -0.100907
v 0.427306 0.122000 -0.100907
v 0.466313 -0.122000 -0.115719
v 0.466313 0.122000 -0.115719
v 0.499444 -0.122000 -0.134926
v 0.499444 0.122000 -0.134926
v 0.527118 -0.122000 -0.157647
v 0.527118 0.122000 -0.157647
v 0.549750 -0.122000 -0.183000
v 0.549750 0.122000 -0.183000
v 0.567757 -0.122000 -0.210103
v 0.567757 0.122000 -0.210103
v 0.581556 -0.122000 -0.238074
v 0.581556 0.122000 -0.238074
v 0.591563 -0.122000 -0.266031
v 0.591563 0.122000 -0.266031
v 0.598194 -0.122000 -0.293093
v 0.598194 0.122000 -0.293093
v 0.601868 -0.122000 -0.318376
v 0.601868 0.122000 -0.318376
v 0.603000 -0.122000 -0.341000
v 0.603000 0.122000 -0.341000
v 0.601178 -0.122000 -0.374758
v 0.601178 0.122000 -0.374758
v 0.595671 -0.122000 -0.407310
v 0.595671 0.122000 -0.407310
v 0.586422 -0.122000 -0.438328
v 0.586422 0.122000 -0.438328
v 0.573370 -0.122000 -0.467481
v 0.573370 0.122000 -0.467481
v 0.556458 -0.122000 -0.494440
v 0.556458 0.122000 -0.494440
v 0.535625 -0.122000 -0.518875
v 0.535625 0.122000 -0.518875
v 0.510813 -0.122000 -0.540455
v 0.510813 0.122000 -0.540455
v 0.481963 -0.122000 -0.558852
v 0.481963 0.122000 -0.558852
v 0.449016 -0.122000 -0.573734
v 0.449016 0.122000 -0.573734
v 0.411912 -0.122000 -0.584773
v 0.411912 0.122000 -0.584773
v 0.370593 -0.122000 -0.591638
v 0.370593 0.122000 -0.591638
v 0.325000 -0.122000 -0.594000
v 0.325000 0.122000 -0.594000
v 0.174000 -0.122000 -0.594000
v 0.174000 0.122000 -0.594000
v 0.174000 -0.122000 -0.088000
v 0.174000 0.122000 -0.088000
vn 0.000000 1.000000 0.000000
vn 0.000000 1.000000 -0.000001
vn 0.060390 0.000000 -0.998175
vn 0.188844 0.000000 -0.982007
vn 0.322313 0.000000 -0.946633
vn 0.454626 0.000000 -0.890683
vn 0.579121 0.000000 -0.815241
vn 0.690119 0.000000 -0.723696
vn 0.784021 0.000000 -0.620734
vn 0.859559 0.000000 -0.511037
vn 0.917262 0.000000 -0.398283
vn 0.958613 0.000000 -0.284712
vn 0.985242 0.000000 -0.171170
vn 0.998352 0.000000 -0.057390
vn 0.997894 0.000000 0.064869
vn 0.981224 0.000000 0.192872
vn 0.948429 0.000000 0.316990
vn 0.899958 0.000000 0.435977
vn 0.836139 0.000000 0.548517
vn 0.757349 0.000000 0.653010
vn 0.664281 0.000000 0.747483
vn 0.558259 0.000000 0.829667
vn 0.441493 0.000000 0.897264
vn 0.317154 0.000000 0.948374
vn 0.189176 0.000000 0.981943
vn 0.061797 0.000000 0.998089
vn 0.000000 0.000000 1.000000
vn -1.000000 0.000000 0.000000
vn 0.000000 0.000000 -1.000000
vn -0.064737 0.000000 -0.997902
vn -0.205949 0.000000 -0.978563
vn -0.354981 0.000000 -0.934873
vn -0.501535 0.000000 -0.865137
vn -0.634559 0.000000 -0.772874
vn -0.746006 0.000000 -0.665939
vn -0.832925 0.000000 -0.553386
vn -0.896812 0.000000 -0.442412
vn -0.941504 0.000000 -0.337001
vn -0.971258 0.000000 -0.238028
vn -0.989609 0.000000 -0.143787
vn -0.998751 0.000000 -0.049971
vn -0.998546 0.000000 0.053902
vn -0.985993 0.000000 0.166784
vn -0.958301 0.000000 0.285762
vn -0.912711 0.000000 0.408607
vn -0.847103 0.000000 0.531429
vn -0.760965 0.000000 0.648793
vn -0.656263 0.000000 0.754532
vn -0.537650 0.000000 0.843168
vn -0.411657 0.000000 0.911339
vn -0.285160 0.000000 0.958480
vn -0.163903 0.000000 0.986476
vn -0.051730 0.000000 0.998661
vn 1.000000 0.000000 0.000000
usemtl (null)
s off
f 26//1 53//1 27//1
f 53//1 1//1 27//1
f 2//1 1//1 53//1
f 53//1 3//1 2//1
f 53//1 4//1 3//1
f 53//1 5//1 4//1
f 53//1 6//1 5//1
f 53//2 52//2 6//2
f 52//1 51//1 6//1
f 51//1 7//1 6//1
f 26//1 54//1 53//1
f 50//1 7//1 51//1
f 49//1 7//1 50//1
f 48//1 7//1 49//1
f 48//1 8//1 7//1
f 47//1 8//1 48//1
f 46//1 8//1 47//1
f 46//1 9//1 8//1
f 45//1 9//1 46//1
f 45//1 10//1 9//1
f 44//1 10//1 45//1
f 43//1 10//1 44//1
f 43//1 11//1 10//1
f 42//1 11//1 43//1
f 42//1 12//1 11//1
f 41//1 12//1 42//1
f 41//1 13//1 12//1
f 40//1 13//1 41//1
f 39//1 13//1 40//1
f 39//1 14//1 13//1
f 38//1 14//1 39//1
f 38//1 15//1 14//1
f 37//1 15//1 38//1
f 36//1 15//1 37//1
f 36//1 16//1 15//1
f 35//1 16//1 36//1
f 35//1 17//1 16//1
f 34//1 17//1 35//1
f 33//1 17//1 34//1
f 33//1 18//1 17//1
f 32//1 18//1 33//1
f 32//1 19//1 18//1
f 31//1 19//1 32//1
f 30//1 19//1 31//1
f 30//1 20//1 19//1
f 29//1 20//1 30//1
f 28//1 20//1 29//1
f 26//1 28//1 54//1
f 26//1 20//1 28//1
f 26//1 21//1 20//1
f 26//1 22//1 21//1
f 26//1 23//1 22//1
f 26//1 24//1 23//1
f 26//1 25//1 24//1
f 80//1 107//1 81//1
f 107//1 55//1 81//1
f 107//1 56//1 55//1
f 107//1 57//1 56//1
f 107//1 58//1 57//1
f 107//1 59//1 58//1
f 107//1 60//1 59//1
f 107//2 106//2 60//2
f 106//1 105//1 60//1
f 105//1 61//1 60//1
f 80//1 108//1 107//1
f 104//1 61//1 105//1
f 103//1 61//1 104//1
f 102//1 61//1 103//1
f 102//1 62//1 61//1
f 101//1 62//1 102//1
f 100//1 62//1 101//1
f 100//1 63//1 62//1
f 99//1 63//1 100//1
f 99//1 64//1 63//1
f 98//1 64//1 99//1
f 97//1 64//1 98//1
f 97//1 65//1 64//1
f 96//1 65//1 97//1
f 96//1 66//1 65//1
f 95//1 66//1 96//1
f 95//1 67//1 66//1
f 94//1 67//1 95//1
f 93//1 67//1 94//1
f 93//1 68//1 67//1
f 92//1 68//1 93//1
f 92//1 69//1 68//1
f 91//1 69//1 92//1
f 90//1 69//1 91//1
f 90//1 70//1 69//1
f 89//1 70//1 90//1
f 89//1 71//1 70//1
f 88//1 71//1 89//1
f 87//1 71//1 88//1
f 87//1 72//1 71//1
f 86//1 72//1 87//1
f 86//1 73//1 72//1
f 85//1 73//1 86//1
f 84//1 73//1 85//1
f 84//1 74//1 73//1
f 83//1 74//1 84//1
f 82//1 74//1 83//1
f 80//1 82//1 108//1
f 80//1 74//1 82//1
f 80//1 75//1 74//1
f 80//1 76//1 75//1
f 80//1 77//1 76//1
f 80//1 78//1 77//1
f 80//1 79//1 78//1
f 110//3 112//3 111//3 109//3
f 112//4 114//4 113//4 111//4
f 114//5 116//5 115//5 113//5
f 116//6 118//6 117//6 115//6
f 118//7 120//7 119//7 117//7
f 120//8 122//8 121//8 119//8
f 122//9 124//9 123//9 121//9
f 124//10 126//10 125//10 123//10
f 126//11 128//11 127//11 125//11
f 128//12 130//12 129//12 127//12
f 130//13 132//13 131//13 129//13
f 132//14 134//14 133//14 131//14
f 134//15 136//15 135//15 133//15
f 136//16 138//16 137//16 135//16
f 138//17 140//17 139//17 137//17
f 140//18 142//18 141//18 139//18
f 142//19 144//19 143//19 141//19
f 144//20 146//20 145//20 143//20
f 146//21 148//21 147//21 145//21
f 148//22 150//22 149//22 147//22
f 150//23 152//23 151//23 149//23
f 152//24 154//24 153//24 151//24
f 154//25 156//25 155//25 153//25
f 156//26 158//26 157//26 155//26
f 158//27 160//27 159//27 157//27
f 160//28 162//28 161//28 159//28
f 162//29 110//29 109//29 161//29
f 164//30 166//30 165//30 163//30
f 166//31 168//31 167//31 165//31
f 168//32 170//32 169//32 167//32
f 170//33 172//33 171//33 169//33
f 172//34 174//34 173//34 171//34
f 174//35 176//35 175//35 173//35
f 176//36 178//36 177//36 175//36
f 178//37 180//37 179//37 177//37
f 180//38 182//38 181//38 179//38
f 182//39 184//39 183//39 181//39
f 184//40 186//40 185//40 183//40
f 186//41 188//41 187//41 185//41
f 188//42 190//42 189//42 187//42
f 190//43 192//43 191//43 189//43
f 192//44 194//44 193//44 191//44
f 194//45 196//45 195//45 193//45
f 196//46 198//46 197//46 195//46
f 198//47 200//47 199//47 197//47
f 200//48 202//48 201//48 199//48
f 202//49 204//49 203//49 201//49
f 204//50 206//50 205//50 203//50
f 206//51 208//51 207//51 205//51
f 208//52 210//52 209//52 207//52
f 210//53 212//53 211//53 209//53
f 212//27 214//27 213//27 211//27
f 214//54 216//54 215//54 213//54
f 216//29 164//29 163//29 215//29
