# Blender3D v247 OBJ File: 
# www.blender3d.org
o Font_Text
v 0.650582 0.122000 -0.037495
v 0.628741 0.122000 -0.028963
v 0.607344 0.122000 -0.021375
v 0.586259 0.122000 -0.014704
v 0.565355 0.122000 -0.008921
v 0.544500 0.122000 -0.004000
v 0.523561 0.122000 0.000088
v 0.502407 0.122000 0.003370
v 0.480906 0.122000 0.005875
v 0.458926 0.122000 0.007630
v 0.436335 0.122000 0.008662
v 0.413000 0.122000 0.009000
v 0.361953 0.122000 0.006011
v 0.313542 0.122000 -0.002741
v 0.268109 0.122000 -0.016938
v 0.226000 0.122000 -0.036259
v 0.187557 0.122000 -0.060387
v 0.153125 0.122000 -0.089000
v 0.123047 0.122000 -0.121780
v 0.097667 0.122000 -0.158407
v 0.077328 0.122000 -0.198563
v 0.062375 0.122000 -0.241926
v 0.053151 0.122000 -0.288178
v 0.050000 0.122000 -0.337000
v 0.053229 0.122000 -0.386189
v 0.062667 0.122000 -0.433014
v 0.077937 0.122000 -0.477109
v 0.098667 0.122000 -0.518111
v 0.124479 0.122000 -0.555655
v 0.155000 0.122000 -0.589375
v 0.189854 0.122000 -0.618908
v 0.228667 0.122000 -0.643889
v 0.271062 0.122000 -0.663953
v 0.316667 0.122000 -0.678736
v 0.365104 0.122000 -0.687873
v 0.416000 0.122000 -0.691000
v 0.435543 0.122000 -0.690718
v 0.454347 0.122000 -0.689829
v 0.472672 0.122000 -0.688266
v 0.490778 0.122000 -0.685963
v 0.508925 0.122000 -0.682855
v 0.527375 0.122000 -0.678875
v 0.546387 0.122000 -0.673958
v 0.566222 0.122000 -0.668037
v 0.587141 0.122000 -0.661047
v 0.609403 0.122000 -0.652921
v 0.633269 0.122000 -0.643594
v 0.659000 0.122000 -0.633000
v 0.659000 0.122000 -0.534000
v 0.638940 0.122000 -0.544561
v 0.618769 0.122000 -0.554241
v 0.598500 0.122000 -0.563031
v 0.578148 0.122000 -0.570926
v 0.557727 0.122000 -0.577918
v 0.537250 0.122000 -0.584000
v 0.516732 0.122000 -0.589166
v 0.496185 0.122000 -0.593407
v 0.475625 0.122000 -0.596719
v 0.455065 0.122000 -0.599093
v 0.434519 0.122000 -0.600522
v 0.414000 0.122000 -0.601000
v 0.377735 0.122000 -0.598691
v 0.343130 0.122000 -0.591945
v 0.310469 0.122000 -0.581031
v 0.280037 0.122000 -0.566222
v 0.252119 0.122000 -0.547788
v 0.227000 0.122000 -0.526000
v 0.204964 0.122000 -0.501129
v 0.186296 0.122000 -0.473444
v 0.171281 0.122000 -0.443219
v 0.160204 0.122000 -0.410722
v 0.153348 0.122000 -0.376226
v 0.151000 0.122000 -0.340000
v 0.153337 0.122000 -0.302973
v 0.160194 0.122000 -0.268037
v 0.171344 0.122000 -0.235406
v 0.186556 0.122000 -0.205296
v 0.205601 0.122000 -0.177922
v 0.228250 0.122000 -0.153500
v 0.254274 0.122000 -0.132244
v 0.283444 0.122000 -0.114370
v 0.315531 0.122000 -0.100094
v 0.350306 0.122000 -0.089630
v 0.387538 0.122000 -0.083193
v 0.427000 0.122000 -0.081000
v 0.440148 0.122000 -0.081245
v 0.453102 0.122000 -0.081958
v 0.465875 0.122000 -0.083109
v 0.478481 0.122000 -0.084667
v 0.490935 0.122000 -0.086599
v 0.503250 0.122000 -0.088875
v 0.515440 0.122000 -0.091464
v 0.527519 0.122000 -0.094333
v 0.539500 0.122000 -0.097453
v 0.551398 0.122000 -0.100792
v 0.563227 0.122000 -0.104318
v 0.575000 0.122000 -0.108000
v 0.575000 0.122000 -0.248000
v 0.444000 0.122000 -0.248000
v 0.444000 0.122000 -0.336000
v 0.673000 0.122000 -0.336000
v 0.673000 0.122000 -0.047000
v 0.650582 -0.122000 -0.037495
v 0.628741 -0.122000 -0.028963
v 0.607344 -0.122000 -0.021375
v 0.586259 -0.122000 -0.014704
v 0.565355 -0.122000 -0.008921
v 0.544500 -0.122000 -0.004000
v 0.523561 -0.122000 0.000088
v 0.502407 -0.122000 0.003370
v 0.480906 -0.122000 0.005875
v 0.458926 -0.122000 0.007630
v 0.436335 -0.122000 0.008662
v 0.413000 -0.122000 0.009000
v 0.361953 -0.122000 0.006011
v 0.313542 -0.122000 -0.002741
v 0.268109 -0.122000 -0.016938
v 0.226000 -0.122000 -0.036259
v 0.187557 -0.122000 -0.060387
v 0.153125 -0.122000 -0.089000
v 0.123047 -0.122000 -0.121780
v 0.097667 -0.122000 -0.158407
v 0.077328 -0.122000 -0.198563
v 0.062375 -0.122000 -0.241926
v 0.053151 -0.122000 -0.288178
v 0.050000 -0.122000 -0.337000
v 0.053229 -0.122000 -0.386189
v 0.062667 -0.122000 -0.433014
v 0.077937 -0.122000 -0.477109
v 0.098667 -0.122000 -0.518111
v 0.124479 -0.122000 -0.555655
v 0.155000 -0.122000 -0.589375
v 0.189854 -0.122000 -0.618908
v 0.228667 -0.122000 -0.643889
v 0.271062 -0.122000 -0.663953
v 0.316667 -0.122000 -0.678736
v 0.365104 -0.122000 -0.687873
v 0.416000 -0.122000 -0.691000
v 0.435543 -0.122000 -0.690718
v 0.454347 -0.122000 -0.689829
v 0.472672 -0.122000 -0.688266
v 0.490778 -0.122000 -0.685963
v 0.508925 -0.122000 -0.682855
v 0.527375 -0.122000 -0.678875
v 0.546387 -0.122000 -0.673958
v 0.566222 -0.122000 -0.668037
v 0.587141 -0.122000 -0.661047
v 0.609403 -0.122000 -0.652921
v 0.633269 -0.122000 -0.643594
v 0.659000 -0.122000 -0.633000
v 0.659000 -0.122000 -0.534000
v 0.638940 -0.122000 -0.544561
v 0.618769 -0.122000 -0.554241
v 0.598500 -0.122000 -0.563031
v 0.578148 -0.122000 -0.570926
v 0.557727 -0.122000 -0.577918
v 0.537250 -0.122000 -0.584000
v 0.516732 -0.122000 -0.589166
v 0.496185 -0.122000 -0.593407
v 0.475625 -0.122000 -0.596719
v 0.455065 -0.122000 -0.599093
v 0.434519 -0.122000 -0.600522
v 0.414000 -0.122000 -0.601000
v 0.377735 -0.122000 -0.598691
v 0.343130 -0.122000 -0.591945
v 0.310469 -0.122000 -0.581031
v 0.280037 -0.122000 -0.566222
v 0.252119 -0.122000 -0.547788
v 0.227000 -0.122000 -0.526000
v 0.204964 -0.122000 -0.501129
v 0.186296 -0.122000 -0.473444
v 0.171281 -0.122000 -0.443219
v 0.160204 -0.122000 -0.410722
v 0.153348 -0.122000 -0.376226
v 0.151000 -0.122000 -0.340000
v 0.153337 -0.122000 -0.302973
v 0.160194 -0.122000 -0.268037
v 0.171344 -0.122000 -0.235406
v 0.186556 -0.122000 -0.205296
v 0.205601 -0.122000 -0.177922
v 0.228250 -0.122000 -0.153500
v 0.254274 -0.122000 -0.132244
v 0.283444 -0.122000 -0.114370
v 0.315531 -0.122000 -0.100094
v 0.350306 -0.122000 -0.089630
v 0.387538 -0.122000 -0.083193
v 0.427000 -0.122000 -0.081000
v 0.440148 -0.122000 -0.081245
v 0.453102 -0.122000 -0.081958
v 0.465875 -0.122000 -0.083109
v 0.478481 -0.122000 -0.084667
v 0.490935 -0.122000 -0.086599
v 0.503250 -0.122000 -0.088875
v 0.515440 -0.122000 -0.091464
v 0.527519 -0.122000 -0.094333
v 0.539500 -0.122000 -0.097453
v 0.551398 -0.122000 -0.100792
v 0.563227 -0.122000 -0.104318
v 0.575000 -0.122000 -0.108000
v 0.575000 -0.122000 -0.248000
v 0.444000 -0.122000 -0.248000
v 0.444000 -0.122000 -0.336000
v 0.673000 -0.122000 -0.336000
v 0.673000 -0.122000 -0.047000
v 0.650582 -0.122000 -0.037495
v 0.650582 0.122000 -0.037495
v 0.628741 -0.122000 -0.028963
v 0.628741 0.122000 -0.028963
v 0.607344 -0.122000 -0.021375
v 0.607344 0.122000 -0.021375
v 0.586259 -0.122000 -0.014704
v 0.586259 0.122000 -0.014704
v 0.565355 -0.122000 -0.008921
v 0.565355 0.122000 -0.008921
v 0.544500 -0.122000 -0.004000
v 0.544500 0.122000 -0.004000
v 0.523561 -0.122000 0.000088
v 0.523561 0.122000 0.000088
v 0.502407 -0.122000 0.003370
v 0.502407 0.122000 0.003370
v 0.480906 -0.122000 0.005875
v 0.480906 0.122000 0.005875
v 0.458926 -0.122000 0.007630
v 0.458926 0.122000 0.007630
v 0.436335 -0.122000 0.008662
v 0.436335 0.122000 0.008662
v 0.413000 -0.122000 0.009000
v 0.413000 0.122000 0.009000
v 0.361953 -0.122000 0.006011
v 0.361953 0.122000 0.006011
v 0.313542 -0.122000 -0.002741
v 0.313542 0.122000 -0.002741
v 0.268109 -0.122000 -0.016938
v 0.268109 0.122000 -0.016938
v 0.226000 -0.122000 -0.036259
v 0.226000 0.122000 -0.036259
v 0.187557 -0.122000 -0.060387
v 0.187557 0.122000 -0.060387
v 0.153125 -0.122000 -0.089000
v 0.153125 0.122000 -0.089000
v 0.123047 -0.122000 -0.121780
v 0.123047 0.122000 -0.121780
v 0.097667 -0.122000 -0.158407
v 0.097667 0.122000 -0.158407
v 0.077328 -0.122000 -0.198563
v 0.077328 0.122000 -0.198563
v 0.062375 -0.122000 -0.241926
v 0.062375 0.122000 -0.241926
v 0.053151 -0.122000 -0.288178
v 0.053151 0.122000 -0.288178
v 0.050000 -0.122000 -0.337000
v 0.050000 0.122000 -0.337000
v 0.053229 -0.122000 -0.386189
v 0.053229 0.122000 -0.386189
v 0.062667 -0.122000 -0.433014
v 0.062667 0.122000 -0.433014
v 0.077937 -0.122000 -0.477109
v 0.077937 0.122000 -0.477109
v 0.098667 -0.122000 -0.518111
v 0.098667 0.122000 -0.518111
v 0.124479 -0.122000 -0.555655
v 0.124479 0.122000 -0.555655
v 0.155000 -0.122000 -0.589375
v 0.155000 0.122000 -0.589375
v 0.189854 -0.122000 -0.618908
v 0.189854 0.122000 -0.618908
v 0.228667 -0.122000 -0.643889
v 0.228667 0.122000 -0.643889
v 0.271062 -0.122000 -0.663953
v 0.271062 0.122000 -0.663953
v 0.316667 -0.122000 -0.678736
v 0.316667 0.122000 -0.678736
v 0.365104 -0.122000 -0.687873
v 0.365104 0.122000 -0.687873
v 0.416000 -0.122000 -0.691000
v 0.416000 0.122000 -0.691000
v 0.435543 -0.122000 -0.690718
v 0.435543 0.122000 -0.690718
v 0.454347 -0.122000 -0.689829
v 0.454347 0.122000 -0.689829
v 0.472672 -0.122000 -0.688266
v 0.472672 0.122000 -0.688266
v 0.490778 -0.122000 -0.685963
v 0.490778 0.122000 -0.685963
v 0.508925 -0.122000 -0.682855
v 0.508925 0.122000 -0.682855
v 0.527375 -0.122000 -0.678875
v 0.527375 0.122000 -0.678875
v 0.546387 -0.122000 -0.673958
v 0.546387 0.122000 -0.673958
v 0.566222 -0.122000 -0.668037
v 0.566222 0.122000 -0.668037
v 0.587141 -0.122000 -0.661047
v 0.587141 0.122000 -0.661047
v 0.609403 -0.122000 -0.652921
v 0.609403 0.122000 -0.652921
v 0.633269 -0.122000 -0.643594
v 0.633269 0.122000 -0.643594
v 0.659000 -0.122000 -0.633000
v 0.659000 0.122000 -0.633000
v 0.659000 -0.122000 -0.534000
v 0.659000 0.122000 -0.534000
v 0.638940 -0.122000 -0.544561
v 0.638940 0.122000 -0.544561
v 0.618769 -0.122000 -0.554241
v 0.618769 0.122000 -0.554241
v 0.598500 -0.122000 -0.563031
v 0.598500 0.122000 -0.563031
v 0.578148 -0.122000 -0.570926
v 0.578148 0.122000 -0.570926
v 0.557727 -0.122000 -0.577918
v 0.557727 0.122000 -0.577918
v 0.537250 -0.122000 -0.584000
v 0.537250 0.122000 -0.584000
v 0.516732 -0.122000 -0.589166
v 0.516732 0.122000 -0.589166
v 0.496185 -0.122000 -0.593407
v 0.496185 0.122000 -0.593407
v 0.475625 -0.122000 -0.596719
v 0.475625 0.122000 -0.596719
v 0.455065 -0.122000 -0.599093
v 0.455065 0.122000 -0.599093
v 0.434519 -0.122000 -0.600522
v 0.434519 0.122000 -0.600522
v 0.414000 -0.122000 -0.601000
v 0.414000 0.122000 -0.601000
v 0.377735 -0.122000 -0.598691
v 0.377735 0.122000 -0.598691
v 0.343130 -0.122000 -0.591945
v 0.343130 0.122000 -0.591945
v 0.310469 -0.122000 -0.581031
v 0.310469 0.122000 -0.581031
v 0.280037 -0.122000 -0.566222
v 0.280037 0.122000 -0.566222
v 0.252119 -0.122000 -0.547788
v 0.252119 0.122000 -0.547788
v 0.227000 -0.122000 -0.526000
v 0.227000 0.122000 -0.526000
v 0.204964 -0.122000 -0.501129
v 0.204964 0.122000 -0.501129
v 0.186296 -0.122000 -0.473444
v 0.186296 0.122000 -0.473444
v 0.171281 -0.122000 -0.443219
v 0.171281 0.122000 -0.443219
v 0.160204 -0.122000 -0.410722
v 0.160204 0.122000 -0.410722
v 0.153348 -0.122000 -0.376226
v 0.153348 0.122000 -0.376226
v 0.151000 -0.122000 -0.340000
v 0.151000 0.122000 -0.340000
v 0.153337 -0.122000 -0.302973
v 0.153337 0.122000 -0.302973
v 0.160194 -0.122000 -0.268037
v 0.160194 0.122000 -0.268037
v 0.171344 -0.122000 -0.235406
v 0.171344 0.122000 -0.235406
v 0.186556 -0.122000 -0.205296
v 0.186556 0.122000 -0.205296
v 0.205601 -0.122000 -0.177922
v 0.205601 0.122000 -0.177922
v 0.228250 -0.122000 -0.153500
v 0.228250 0.122000 -0.153500
v 0.254274 -0.122000 -0.132244
v 0.254274 0.122000 -0.132244
v 0.283444 -0.122000 -0.114370
v 0.283444 0.122000 -0.114370
v 0.315531 -0.122000 -0.100094
v 0.315531 0.122000 -0.100094
v 0.350306 -0.122000 -0.089630
v 0.350306 0.122000 -0.089630
v 0.387538 -0.122000 -0.083193
v 0.387538 0.122000 -0.083193
v 0.427000 -0.122000 -0.081000
v 0.427000 0.122000 -0.081000
v 0.440148 -0.122000 -0.081245
v 0.440148 0.122000 -0.081245
v 0.453102 -0.122000 -0.081958
v 0.453102 0.122000 -0.081958
v 0.465875 -0.122000 -0.083109
v 0.465875 0.122000 -0.083109
v 0.478481 -0.122000 -0.084667
v 0.478481 0.122000 -0.084667
v 0.490935 -0.122000 -0.086599
v 0.490935 0.122000 -0.086599
v 0.503250 -0.122000 -0.088875
v 0.503250 0.122000 -0.088875
v 0.515440 -0.122000 -0.091464
v 0.515440 0.122000 -0.091464
v 0.527519 -0.122000 -0.094333
v 0.527519 0.122000 -0.094333
v 0.539500 -0.122000 -0.097453
v 0.539500 0.122000 -0.097453
v 0.551398 -0.122000 -0.100792
v 0.551398 0.122000 -0.100792
v 0.563227 -0.122000 -0.104318
v 0.563227 0.122000 -0.104318
v 0.575000 -0.122000 -0.108000
v 0.575000 0.122000 -0.108000
v 0.575000 -0.122000 -0.248000
v 0.575000 0.122000 -0.248000
v 0.444000 -0.122000 -0.248000
v 0.444000 0.122000 -0.248000
v 0.444000 -0.122000 -0.336000
v 0.444000 0.122000 -0.336000
v 0.673000 -0.122000 -0.336000
v 0.673000 0.122000 -0.336000
v 0.673000 -0.122000 -0.047000
v 0.673000 0.122000 -0.047000
vn 0.000000 1.000000 0.000000
vn 0.000000 1.000000 -0.000001
vn 0.000000 1.000000 0.000002
vn 0.000000 1.000000 -0.000002
vn 0.363873 0.000000 0.931449
vn 0.334233 0.000000 0.942490
vn 0.301667 0.000000 0.953413
vn 0.266606 0.000000 0.963806
vn 0.229666 0.000000 0.973270
vn 0.191618 0.000000 0.981470
vn 0.153333 0.000000 0.988175
vn 0.115706 0.000000 0.993284
vn 0.079574 0.000000 0.996829
vn 0.045651 0.000000 0.998957
vn 0.014482 0.000000 0.999895
vn -0.058444 0.000000 0.998291
vn -0.177906 0.000000 0.984047
vn -0.298259 0.000000 0.954485
vn -0.417040 0.000000 0.908888
vn -0.531592 0.000000 0.847000
vn -0.639127 0.000000 0.769101
vn -0.736821 0.000000 0.676087
vn -0.821952 0.000000 0.569556
vn -0.892096 0.000000 0.451846
vn -0.945372 0.000000 0.325995
vn -0.980689 0.000000 0.195576
vn -0.997924 0.000000 0.064408
vn -0.997852 0.000000 -0.065507
vn -0.980287 0.000000 -0.197577
vn -0.944940 0.000000 -0.327244
vn -0.892431 0.000000 -0.451184
vn -0.824028 0.000000 -0.566550
vn -0.741407 0.000000 -0.671056
vn -0.646465 0.000000 -0.762944
vn -0.541218 0.000000 -0.840883
vn -0.427773 0.000000 -0.903886
vn -0.308362 0.000000 -0.951269
vn -0.185369 0.000000 -0.982669
vn -0.061319 0.000000 -0.998118
vn 0.014418 0.000000 -0.999896
vn 0.047250 0.000000 -0.998883
vn 0.084990 0.000000 -0.996382
vn 0.126160 0.000000 -0.992010
vn 0.168816 0.000000 -0.985648
vn 0.210858 0.000000 -0.977517
vn 0.250398 0.000000 -0.968143
vn 0.286026 0.000000 -0.958222
vn 0.316937 0.000000 -0.948447
vn 0.342871 0.000000 -0.939382
vn 0.363994 0.000000 -0.931401
vn 0.380726 0.000000 -0.924688
vn 1.000000 0.000000 0.000000
vn -0.465862 0.000000 0.884857
vn -0.432628 0.000000 0.901573
vn -0.397892 0.000000 0.917432
vn -0.361654 0.000000 0.932312
vn -0.323923 0.000000 0.946083
vn -0.284732 0.000000 0.958607
vn -0.244131 0.000000 0.969742
vn -0.202191 0.000000 0.979346
vn -0.159007 0.000000 0.987278
vn -0.114695 0.000000 0.993401
vn -0.069401 0.000000 0.997589
vn -0.023291 0.000000 0.999729
vn 0.063540 0.000000 0.997979
vn 0.191354 0.000000 0.981521
vn 0.316913 0.000000 0.948455
vn 0.437571 0.000000 0.899184
vn 0.551015 0.000000 0.834496
vn 0.655243 0.000000 0.755418
vn 0.748486 0.000000 0.663150
vn 0.829111 0.000000 0.559083
vn 0.895583 0.000000 0.444894
vn 0.946518 0.000000 0.322652
vn 0.980821 0.000000 0.194914
vn 0.997905 0.000000 0.064691
vn 0.998015 0.000000 -0.062984
vn 0.981275 0.000000 -0.192614
vn 0.946287 0.000000 -0.323328
vn 0.892560 0.000000 -0.450929
vn 0.820870 0.000000 -0.571115
vn 0.733223 0.000000 -0.679989
vn 0.632581 0.000000 -0.774494
vn 0.522463 0.000000 -0.852662
vn 0.406514 0.000000 -0.913644
vn 0.288152 0.000000 -0.957585
vn 0.170342 0.000000 -0.985385
vn 0.055494 0.000000 -0.998459
vn -0.018616 0.000000 -0.999827
vn -0.055001 0.000000 -0.998486
vn -0.089750 0.000000 -0.995964
vn -0.122599 0.000000 -0.992456
vn -0.153324 0.000000 -0.988176
vn -0.181743 0.000000 -0.983346
vn -0.207721 0.000000 -0.978188
vn -0.231156 0.000000 -0.972917
vn -0.251982 0.000000 -0.967732
vn -0.270159 0.000000 -0.962816
vn -0.285669 0.000000 -0.958328
vn -0.298510 0.000000 -0.954407
vn -1.000000 0.000000 0.000000
vn 0.000000 0.000000 1.000000
vn 0.000000 0.000000 -1.000000
vn 0.390341 0.000000 0.920670
usemtl (null)
s off
f 35//1 37//1 36//1
f 35//1 38//1 37//1
f 35//1 39//1 38//1
f 35//1 40//1 39//1
f 34//1 40//1 35//1
f 34//1 41//1 40//1
f 34//1 42//1 41//1
f 34//1 43//1 42//1
f 33//1 43//1 34//1
f 33//1 44//1 43//1
f 33//1 45//1 44//1
f 32//1 45//1 33//1
f 32//1 46//1 45//1
f 32//1 47//1 46//1
f 31//1 47//1 32//1
f 31//1 48//1 47//1
f 31//1 61//1 48//1
f 61//1 60//1 48//1
f 60//1 59//1 48//1
f 59//1 58//1 48//1
f 58//2 57//2 48//2
f 57//1 56//1 48//1
f 56//1 55//1 48//1
f 55//1 54//1 48//1
f 54//1 53//1 48//1
f 53//1 52//1 48//1
f 52//1 51//1 48//1
f 51//1 50//1 48//1
f 50//1 49//1 48//1
f 30//1 61//1 31//1
f 30//3 62//3 61//3
f 30//2 63//2 62//2
f 30//1 64//1 63//1
f 29//1 64//1 30//1
f 29//1 65//1 64//1
f 29//1 66//1 65//1
f 28//1 66//1 29//1
f 28//1 67//1 66//1
f 28//1 68//1 67//1
f 27//1 68//1 28//1
f 27//1 69//1 68//1
f 26//1 69//1 27//1
f 26//1 70//1 69//1
f 26//1 71//1 70//1
f 25//1 71//1 26//1
f 25//1 72//1 71//1
f 24//1 72//1 25//1
f 24//1 73//1 72//1
f 24//1 74//1 73//1
f 23//1 74//1 24//1
f 99//1 101//1 100//1
f 99//1 98//1 101//1
f 98//1 102//1 101//1
f 23//1 75//1 74//1
f 22//1 75//1 23//1
f 22//1 76//1 75//1
f 97//1 102//1 98//1
f 21//1 76//1 22//1
f 21//1 77//1 76//1
f 21//1 78//1 77//1
f 20//1 78//1 21//1
f 20//1 79//1 78//1
f 19//1 79//1 20//1
f 19//1 80//1 79//1
f 19//1 81//1 80//1
f 18//1 81//1 19//1
f 18//1 82//1 81//1
f 96//1 102//1 97//1
f 95//1 102//1 96//1
f 94//1 102//1 95//1
f 18//1 83//1 82//1
f 93//1 102//1 94//1
f 92//1 102//1 93//1
f 91//1 102//1 92//1
f 18//2 84//2 83//2
f 17//1 84//1 18//1
f 90//1 102//1 91//1
f 89//4 102//4 90//4
f 88//1 102//1 89//1
f 17//1 85//1 84//1
f 87//1 102//1 88//1
f 86//1 102//1 87//1
f 85//1 102//1 86//1
f 17//1 102//1 85//1
f 16//1 102//1 17//1
f 16//1 1//1 102//1
f 2//1 1//1 16//1
f 15//1 2//1 16//1
f 15//1 3//1 2//1
f 15//1 4//1 3//1
f 14//1 4//1 15//1
f 14//1 5//1 4//1
f 14//1 6//1 5//1
f 14//1 7//1 6//1
f 13//1 7//1 14//1
f 13//1 8//1 7//1
f 13//1 9//1 8//1
f 13//1 10//1 9//1
f 12//1 10//1 13//1
f 12//1 11//1 10//1
f 137//1 139//1 138//1
f 137//1 140//1 139//1
f 137//1 141//1 140//1
f 137//1 142//1 141//1
f 136//1 142//1 137//1
f 136//1 143//1 142//1
f 136//1 144//1 143//1
f 136//1 145//1 144//1
f 135//1 145//1 136//1
f 135//1 146//1 145//1
f 135//1 147//1 146//1
f 134//1 147//1 135//1
f 134//1 148//1 147//1
f 134//1 149//1 148//1
f 133//1 149//1 134//1
f 133//1 150//1 149//1
f 133//1 163//1 150//1
f 163//1 162//1 150//1
f 162//1 161//1 150//1
f 161//1 160//1 150//1
f 160//2 159//2 150//2
f 159//1 158//1 150//1
f 158//1 157//1 150//1
f 157//1 156//1 150//1
f 156//1 155//1 150//1
f 155//1 154//1 150//1
f 154//1 153//1 150//1
f 153//1 152//1 150//1
f 152//1 151//1 150//1
f 132//1 163//1 133//1
f 132//3 164//3 163//3
f 132//2 165//2 164//2
f 132//1 166//1 165//1
f 131//1 166//1 132//1
f 131//1 167//1 166//1
f 131//1 168//1 167//1
f 130//1 168//1 131//1
f 130//1 169//1 168//1
f 130//1 170//1 169//1
f 129//1 170//1 130//1
f 129//1 171//1 170//1
f 128//1 171//1 129//1
f 128//1 172//1 171//1
f 128//1 173//1 172//1
f 127//1 173//1 128//1
f 127//1 174//1 173//1
f 126//1 174//1 127//1
f 126//1 175//1 174//1
f 126//1 176//1 175//1
f 125//1 176//1 126//1
f 201//1 203//1 202//1
f 201//1 200//1 203//1
f 200//1 204//1 203//1
f 125//1 177//1 176//1
f 124//1 177//1 125//1
f 124//1 178//1 177//1
f 199//1 204//1 200//1
f 123//1 178//1 124//1
f 123//1 179//1 178//1
f 123//1 180//1 179//1
f 122//1 180//1 123//1
f 122//1 181//1 180//1
f 121//1 181//1 122//1
f 121//1 182//1 181//1
f 121//1 183//1 182//1
f 120//1 183//1 121//1
f 120//1 184//1 183//1
f 198//1 204//1 199//1
f 197//1 204//1 198//1
f 196//1 204//1 197//1
f 120//1 185//1 184//1
f 195//1 204//1 196//1
f 194//1 204//1 195//1
f 193//1 204//1 194//1
f 120//2 186//2 185//2
f 119//1 186//1 120//1
f 192//1 204//1 193//1
f 191//4 204//4 192//4
f 190//1 204//1 191//1
f 119//1 187//1 186//1
f 189//1 204//1 190//1
f 188//1 204//1 189//1
f 187//1 204//1 188//1
f 119//1 204//1 187//1
f 118//1 204//1 119//1
f 118//1 103//1 204//1
f 118//1 104//1 103//1
f 117//1 104//1 118//1
f 117//1 105//1 104//1
f 117//1 106//1 105//1
f 116//1 106//1 117//1
f 116//1 107//1 106//1
f 116//1 108//1 107//1
f 116//1 109//1 108//1
f 115//1 109//1 116//1
f 115//1 110//1 109//1
f 115//1 111//1 110//1
f 115//1 112//1 111//1
f 114//1 112//1 115//1
f 114//1 113//1 112//1
f 206//5 208//5 207//5 205//5
f 208//6 210//6 209//6 207//6
f 210//7 212//7 211//7 209//7
f 212//8 214//8 213//8 211//8
f 214//9 216//9 215//9 213//9
f 216//10 218//10 217//10 215//10
f 218//11 220//11 219//11 217//11
f 220//12 222//12 221//12 219//12
f 222//13 224//13 223//13 221//13
f 224//14 226//14 225//14 223//14
f 226//15 228//15 227//15 225//15
f 228//16 230//16 229//16 227//16
f 230//17 232//17 231//17 229//17
f 232//18 234//18 233//18 231//18
f 234//19 236//19 235//19 233//19
f 236//20 238//20 237//20 235//20
f 238//21 240//21 239//21 237//21
f 240//22 242//22 241//22 239//22
f 242//23 244//23 243//23 241//23
f 244//24 246//24 245//24 243//24
f 246//25 248//25 247//25 245//25
f 248//26 250//26 249//26 247//26
f 250//27 252//27 251//27 249//27
f 252//28 254//28 253//28 251//28
f 254//29 256//29 255//29 253//29
f 256//30 258//30 257//30 255//30
f 258//31 260//31 259//31 257//31
f 260//32 262//32 261//32 259//32
f 262//33 264//33 263//33 261//33
f 264//34 266//34 265//34 263//34
f 266//35 268//35 267//35 265//35
f 268//36 270//36 269//36 267//36
f 270//37 272//37 271//37 269//37
f 272//38 274//38 273//38 271//38
f 274//39 276//39 275//39 273//39
f 276//40 278//40 277//40 275//40
f 278//41 280//41 279//41 277//41
f 280//42 282//42 281//42 279//42
f 282//43 284//43 283//43 281//43
f 284//44 286//44 285//44 283//44
f 286//45 288//45 287//45 285//45
f 288//46 290//46 289//46 287//46
f 290//47 292//47 291//47 289//47
f 292//48 294//48 293//48 291//48
f 294//49 296//49 295//49 293//49
f 296//50 298//50 297//50 295//50
f 298//51 300//51 299//51 297//51
f 300//52 302//52 301//52 299//52
f 302//53 304//53 303//53 301//53
f 304//54 306//54 305//54 303//54
f 306//55 308//55 307//55 305//55
f 308//56 310//56 309//56 307//56
f 310//57 312//57 311//57 309//57
f 312//58 314//58 313//58 311//58
f 314//59 316//59 315//59 313//59
f 316//60 318//60 317//60 315//60
f 318//61 320//61 319//61 317//61
f 320//62 322//62 321//62 319//62
f 322//63 324//63 323//63 321//63
f 324//64 326//64 325//64 323//64
f 326//65 328//65 327//65 325//65
f 328//66 330//66 329//66 327//66
f 330//67 332//67 331//67 329//67
f 332//68 334//68 333//68 331//68
f 334//69 336//69 335//69 333//69
f 336//70 338//70 337//70 335//70
f 338//71 340//71 339//71 337//71
f 340//72 342//72 341//72 339//72
f 342//73 344//73 343//73 341//73
f 344//74 346//74 345//74 343//74
f 346//75 348//75 347//75 345//75
f 348//76 350//76 349//76 347//76
f 350//77 352//77 351//77 349//77
f 352//78 354//78 353//78 351//78
f 354//79 356//79 355//79 353//79
f 356//80 358//80 357//80 355//80
f 358//81 360//81 359//81 357//81
f 360//82 362//82 361//82 359//82
f 362//83 364//83 363//83 361//83
f 364//84 366//84 365//84 363//84
f 366//85 368//85 367//85 365//85
f 368//86 370//86 369//86 367//86
f 370//87 372//87 371//87 369//87
f 372//88 374//88 373//88 371//88
f 374//89 376//89 375//89 373//89
f 376//90 378//90 377//90 375//90
f 378//91 380//91 379//91 377//91
f 380//92 382//92 381//92 379//92
f 382//93 384//93 383//93 381//93
f 384//94 386//94 385//94 383//94
f 386//95 388//95 387//95 385//95
f 388//96 390//96 389//96 387//96
f 390//97 392//97 391//97 389//97
f 392//98 394//98 393//98 391//98
f 394//99 396//99 395//99 393//99
f 396//100 398//100 397//100 395//100
f 398//101 400//101 399//101 397//101
f 400//102 402//102 401//102 399//102
f 402//101 404//101 403//101 401//101
f 404//103 406//103 405//103 403//103
f 406//52 408//52 407//52 405//52
f 408//104 206//104 205//104 407//104
