# Blender3D v247 OBJ File: 
# www.blender3d.org
o Font_Text
v 0.318570 0.122000 -0.680206
v 0.350810 0.122000 -0.674982
v 0.379766 0.122000 -0.666563
v 0.405482 0.122000 -0.655185
v 0.428003 0.122000 -0.641086
v 0.447375 0.122000 -0.624500
v 0.463643 0.122000 -0.605664
v 0.476852 0.122000 -0.584815
v 0.487047 0.122000 -0.562188
v 0.494273 0.122000 -0.538019
v 0.498576 0.122000 -0.512544
v 0.500000 0.122000 -0.486000
v 0.498492 0.122000 -0.459765
v 0.493935 0.122000 -0.434699
v 0.486281 0.122000 -0.411016
v 0.475481 0.122000 -0.388926
v 0.461487 0.122000 -0.368642
v 0.444250 0.122000 -0.350375
v 0.423721 0.122000 -0.334337
v 0.399852 0.122000 -0.320741
v 0.372594 0.122000 -0.309797
v 0.341898 0.122000 -0.301718
v 0.307716 0.122000 -0.296715
v 0.270000 0.122000 -0.295000
v 0.168000 0.122000 -0.295000
v 0.168000 0.122000 -0.000000
v 0.070000 0.122000 -0.000000
v 0.070000 0.122000 -0.682000
v 0.283000 0.122000 -0.682000
v 0.279000 0.122000 -0.383000
v 0.296696 0.122000 -0.383807
v 0.313236 0.122000 -0.386204
v 0.328547 0.122000 -0.390156
v 0.342556 0.122000 -0.395630
v 0.355189 0.122000 -0.402589
v 0.366375 0.122000 -0.411000
v 0.376040 0.122000 -0.420828
v 0.384111 0.122000 -0.432037
v 0.390516 0.122000 -0.444594
v 0.395181 0.122000 -0.458463
v 0.398033 0.122000 -0.473610
v 0.399000 0.122000 -0.490000
v 0.398417 0.122000 -0.502550
v 0.396588 0.122000 -0.515065
v 0.393391 0.122000 -0.527344
v 0.388704 0.122000 -0.539185
v 0.382406 0.122000 -0.550388
v 0.374375 0.122000 -0.560750
v 0.364490 0.122000 -0.570071
v 0.352630 0.122000 -0.578148
v 0.338672 0.122000 -0.584781
v 0.322495 0.122000 -0.589769
v 0.303979 0.122000 -0.592909
v 0.283000 0.122000 -0.594000
v 0.168000 0.122000 -0.594000
v 0.168000 0.122000 -0.383000
v 0.318570 -0.122000 -0.680206
v 0.350810 -0.122000 -0.674982
v 0.379766 -0.122000 -0.666563
v 0.405482 -0.122000 -0.655185
v 0.428003 -0.122000 -0.641086
v 0.447375 -0.122000 -0.624500
v 0.463643 -0.122000 -0.605664
v 0.476852 -0.122000 -0.584815
v 0.487047 -0.122000 -0.562188
v 0.494273 -0.122000 -0.538019
v 0.498576 -0.122000 -0.512544
v 0.500000 -0.122000 -0.486000
v 0.498492 -0.122000 -0.459765
v 0.493935 -0.122000 -0.434699
v 0.486281 -0.122000 -0.411016
v 0.475481 -0.122000 -0.388926
v 0.461487 -0.122000 -0.368642
v 0.444250 -0.122000 -0.350375
v 0.423721 -0.122000 -0.334337
v 0.399852 -0.122000 -0.320741
v 0.372594 -0.122000 -0.309797
v 0.341898 -0.122000 -0.301718
v 0.307716 -0.122000 -0.296715
v 0.270000 -0.122000 -0.295000
v 0.168000 -0.122000 -0.295000
v 0.168000 -0.122000 0.000000
v 0.070000 -0.122000 0.000000
v 0.070000 -0.122000 -0.682000
v 0.283000 -0.122000 -0.682000
v 0.279000 -0.122000 -0.383000
v 0.296696 -0.122000 -0.383807
v 0.313236 -0.122000 -0.386204
v 0.328547 -0.122000 -0.390156
v 0.342556 -0.122000 -0.395630
v 0.355189 -0.122000 -0.402589
v 0.366375 -0.122000 -0.411000
v 0.376040 -0.122000 -0.420828
v 0.384111 -0.122000 -0.432037
v 0.390516 -0.122000 -0.444594
v 0.395181 -0.122000 -0.458463
v 0.398033 -0.122000 -0.473610
v 0.399000 -0.122000 -0.490000
v 0.398417 -0.122000 -0.502550
v 0.396588 -0.122000 -0.515065
v 0.393391 -0.122000 -0.527344
v 0.388704 -0.122000 -0.539185
v 0.382406 -0.122000 -0.550388
v 0.374375 -0.122000 -0.560750
v 0.364490 -0.122000 -0.570071
v 0.352630 -0.122000 -0.578148
v 0.338672 -0.122000 -0.584781
v 0.322495 -0.122000 -0.589769
v 0.303979 -0.122000 -0.592909
v 0.283000 -0.122000 -0.594000
v 0.168000 -0.122000 -0.594000
v 0.168000 -0.122000 -0.383000
v 0.318570 -0.122000 -0.680206
v 0.318570 0.122000 -0.680206
v 0.350810 -0.122000 -0.674982
v 0.350810 0.122000 -0.674982
v 0.379766 -0.122000 -0.666563
v 0.379766 0.122000 -0.666563
v 0.405482 -0.122000 -0.655185
v 0.405482 0.122000 -0.655185
v 0.428003 -0.122000 -0.641086
v 0.428003 0.122000 -0.641086
v 0.447375 -0.122000 -0.624500
v 0.447375 0.122000 -0.624500
v 0.463643 -0.122000 -0.605664
v 0.463643 0.122000 -0.605664
v 0.476852 -0.122000 -0.584815
v 0.476852 0.122000 -0.584815
v 0.487047 -0.122000 -0.562188
v 0.487047 0.122000 -0.562188
v 0.494273 -0.122000 -0.538019
v 0.494273 0.122000 -0.538019
v 0.498576 -0.122000 -0.512544
v 0.498576 0.122000 -0.512544
v 0.500000 -0.122000 -0.486000
v 0.500000 0.122000 -0.486000
v 0.498492 -0.122000 -0.459765
v 0.498492 0.122000 -0.459765
v 0.493935 -0.122000 -0.434699
v 0.493935 0.122000 -0.434699
v 0.486281 -0.122000 -0.411016
v 0.486281 0.122000 -0.411016
v 0.475481 -0.122000 -0.388926
v 0.475481 0.122000 -0.388926
v 0.461487 -0.122000 -0.368642
v 0.461487 0.122000 -0.368642
v 0.444250 -0.122000 -0.350375
v 0.444250 0.122000 -0.350375
v 0.423721 -0.122000 -0.334337
v 0.423721 0.122000 -0.334337
v 0.399852 -0.122000 -0.320741
v 0.399852 0.122000 -0.320741
v 0.372594 -0.122000 -0.309797
v 0.372594 0.122000 -0.309797
v 0.341898 -0.122000 -0.301718
v 0.341898 0.122000 -0.301718
v 0.307716 -0.122000 -0.296715
v 0.307716 0.122000 -0.296715
v 0.270000 -0.122000 -0.295000
v 0.270000 0.122000 -0.295000
v 0.168000 -0.122000 -0.295000
v 0.168000 0.122000 -0.295000
v 0.168000 -0.122000 0.000000
v 0.168000 0.122000 -0.000000
v 0.070000 -0.122000 0.000000
v 0.070000 0.122000 -0.000000
v 0.070000 -0.122000 -0.682000
v 0.070000 0.122000 -0.682000
v 0.283000 -0.122000 -0.682000
v 0.283000 0.122000 -0.682000
v 0.279000 -0.122000 -0.383000
v 0.279000 0.122000 -0.383000
v 0.296696 -0.122000 -0.383807
v 0.296696 0.122000 -0.383807
v 0.313236 -0.122000 -0.386204
v 0.313236 0.122000 -0.386204
v 0.328547 -0.122000 -0.390156
v 0.328547 0.122000 -0.390156
v 0.342556 -0.122000 -0.395630
v 0.342556 0.122000 -0.395630
v 0.355189 -0.122000 -0.402589
v 0.355189 0.122000 -0.402589
v 0.366375 -0.122000 -0.411000
v 0.366375 0.122000 -0.411000
v 0.376040 -0.122000 -0.420828
v 0.376040 0.122000 -0.420828
v 0.384111 -0.122000 -0.432037
v 0.384111 0.122000 -0.432037
v 0.390516 -0.122000 -0.444594
v 0.390516 0.122000 -0.444594
v 0.395181 -0.122000 -0.458463
v 0.395181 0.122000 -0.458463
v 0.398033 -0.122000 -0.473610
v 0.398033 0.122000 -0.473610
v 0.399000 -0.122000 -0.490000
v 0.399000 0.122000 -0.490000
v 0.398417 -0.122000 -0.502550
v 0.398417 0.122000 -0.502550
v 0.396588 -0.122000 -0.515065
v 0.396588 0.122000 -0.515065
v 0.393391 -0.122000 -0.527344
v 0.393391 0.122000 -0.527344
v 0.388704 -0.122000 -0.539185
v 0.388704 0.122000 -0.539185
v 0.382406 -0.122000 -0.550388
v 0.382406 0.122000 -0.550388
v 0.374375 -0.122000 -0.560750
v 0.374375 0.122000 -0.560750
v 0.364490 -0.122000 -0.570071
v 0.364490 0.122000 -0.570071
v 0.352630 -0.122000 -0.578148
v 0.352630 0.122000 -0.578148
v 0.338672 -0.122000 -0.584781
v 0.338672 0.122000 -0.584781
v 0.322495 -0.122000 -0.589769
v 0.322495 0.122000 -0.589769
v 0.303979 -0.122000 -0.592909
v 0.303979 0.122000 -0.592909
v 0.283000 -0.122000 -0.594000
v 0.283000 0.122000 -0.594000
v 0.168000 -0.122000 -0.594000
v 0.168000 0.122000 -0.594000
v 0.168000 -0.122000 -0.383000
v 0.168000 0.122000 -0.383000
vn 0.000000 1.000000 0.000000
vn 0.000000 1.000000 -0.000001
vn 0.159964 0.000000 -0.987123
vn 0.279194 0.000000 -0.960235
vn 0.404596 0.000000 -0.914496
vn 0.530639 0.000000 -0.847598
vn 0.650361 0.000000 -0.759625
vn 0.756808 0.000000 -0.653637
vn 0.844742 0.000000 -0.535173
vn 0.911729 0.000000 -0.410791
vn 0.958092 0.000000 -0.286459
vn 0.986035 0.000000 -0.166541
vn 0.998564 0.000000 -0.053577
vn 0.998352 0.000000 0.057392
vn 0.983874 0.000000 0.178860
vn 0.951543 0.000000 0.307516
vn 0.898379 0.000000 0.439222
vn 0.823116 0.000000 0.567874
vn 0.727306 0.000000 0.686313
vn 0.615630 0.000000 0.788036
vn 0.494961 0.000000 0.868915
vn 0.372583 0.000000 0.927999
vn 0.254538 0.000000 0.967063
vn 0.144819 0.000000 0.989458
vn 0.045416 0.000000 0.998968
vn 0.000000 0.000000 1.000000
vn 1.000000 0.000000 0.000000
vn -1.000000 0.000000 0.000000
vn 0.000000 0.000000 -1.000000
vn 0.050371 0.000000 -0.998731
vn -0.045538 0.000000 -0.998963
vn -0.143424 0.000000 -0.989661
vn -0.249959 0.000000 -0.968256
vn -0.363922 0.000000 -0.931429
vn -0.482503 0.000000 -0.875894
vn -0.600985 0.000000 -0.799260
vn -0.712982 0.000000 -0.701183
vn -0.811522 0.000000 -0.584322
vn -0.890818 0.000000 -0.454360
vn -0.947822 0.000000 -0.318801
vn -0.982726 0.000000 -0.185064
vn -0.998264 0.000000 -0.058898
vn -0.998924 0.000000 0.046386
vn -0.989486 0.000000 0.144628
vn -0.967730 0.000000 0.251990
vn -0.929815 0.000000 0.368028
vn -0.871689 0.000000 0.490060
vn -0.790418 0.000000 0.612568
vn -0.686037 0.000000 0.727566
vn -0.562901 0.000000 0.826524
vn -0.429224 0.000000 0.903198
vn -0.294621 0.000000 0.955614
vn -0.167191 0.000000 0.985925
vn -0.051955 0.000000 0.998649
usemtl (null)
s off
f 27//1 55//1 28//1
f 55//1 29//1 28//1
f 55//1 1//1 29//1
f 2//1 1//1 55//1
f 55//1 3//1 2//1
f 55//1 4//1 3//1
f 55//1 5//1 4//1
f 55//1 6//1 5//1
f 55//1 7//1 6//1
f 55//2 54//2 7//2
f 54//1 8//1 7//1
f 27//1 56//1 55//1
f 53//1 8//1 54//1
f 52//1 8//1 53//1
f 51//1 8//1 52//1
f 51//1 9//1 8//1
f 50//1 9//1 51//1
f 49//1 9//1 50//1
f 48//1 9//1 49//1
f 48//1 10//1 9//1
f 47//1 10//1 48//1
f 46//1 10//1 47//1
f 45//1 10//1 46//1
f 45//1 11//1 10//1
f 44//1 11//1 45//1
f 43//1 11//1 44//1
f 43//1 12//1 11//1
f 42//1 12//1 43//1
f 41//1 12//1 42//1
f 41//1 13//1 12//1
f 40//1 13//1 41//1
f 40//1 14//1 13//1
f 39//1 14//1 40//1
f 38//1 14//1 39//1
f 38//1 15//1 14//1
f 37//2 15//2 38//2
f 36//1 15//1 37//1
f 36//1 16//1 15//1
f 35//1 16//1 36//1
f 34//1 16//1 35//1
f 33//1 16//1 34//1
f 32//1 16//1 33//1
f 32//1 17//1 16//1
f 31//1 17//1 32//1
f 30//1 17//1 31//1
f 27//1 25//1 56//1
f 25//1 30//1 56//1
f 25//1 17//1 30//1
f 25//1 18//1 17//1
f 25//1 19//1 18//1
f 25//1 20//1 19//1
f 25//1 21//1 20//1
f 25//1 22//1 21//1
f 25//1 23//1 22//1
f 25//1 24//1 23//1
f 27//1 26//1 25//1
f 83//1 111//1 84//1
f 111//1 85//1 84//1
f 111//1 57//1 85//1
f 111//1 58//1 57//1
f 111//1 59//1 58//1
f 111//1 60//1 59//1
f 111//1 61//1 60//1
f 111//1 62//1 61//1
f 111//1 63//1 62//1
f 111//2 110//2 63//2
f 110//1 64//1 63//1
f 83//1 112//1 111//1
f 109//1 64//1 110//1
f 108//1 64//1 109//1
f 107//1 64//1 108//1
f 107//1 65//1 64//1
f 106//1 65//1 107//1
f 105//1 65//1 106//1
f 104//1 65//1 105//1
f 104//1 66//1 65//1
f 103//1 66//1 104//1
f 102//1 66//1 103//1
f 101//1 66//1 102//1
f 101//1 67//1 66//1
f 100//1 67//1 101//1
f 99//1 67//1 100//1
f 99//1 68//1 67//1
f 98//1 68//1 99//1
f 97//1 68//1 98//1
f 97//1 69//1 68//1
f 96//1 69//1 97//1
f 96//1 70//1 69//1
f 95//1 70//1 96//1
f 94//1 70//1 95//1
f 94//1 71//1 70//1
f 93//2 71//2 94//2
f 92//1 71//1 93//1
f 92//1 72//1 71//1
f 91//1 72//1 92//1
f 90//1 72//1 91//1
f 89//1 72//1 90//1
f 88//1 72//1 89//1
f 88//1 73//1 72//1
f 87//1 73//1 88//1
f 86//1 73//1 87//1
f 83//1 81//1 112//1
f 81//1 86//1 112//1
f 81//1 73//1 86//1
f 81//1 74//1 73//1
f 81//1 75//1 74//1
f 81//1 76//1 75//1
f 81//1 77//1 76//1
f 81//1 78//1 77//1
f 81//1 79//1 78//1
f 81//1 80//1 79//1
f 83//1 82//1 81//1
f 114//3 116//3 115//3 113//3
f 116//4 118//4 117//4 115//4
f 118//5 120//5 119//5 117//5
f 120//6 122//6 121//6 119//6
f 122//7 124//7 123//7 121//7
f 124//8 126//8 125//8 123//8
f 126//9 128//9 127//9 125//9
f 128//10 130//10 129//10 127//10
f 130//11 132//11 131//11 129//11
f 132//12 134//12 133//12 131//12
f 134//13 136//13 135//13 133//13
f 136//14 138//14 137//14 135//14
f 138//15 140//15 139//15 137//15
f 140//16 142//16 141//16 139//16
f 142//17 144//17 143//17 141//17
f 144//18 146//18 145//18 143//18
f 146//19 148//19 147//19 145//19
f 148//20 150//20 149//20 147//20
f 150//21 152//21 151//21 149//21
f 152//22 154//22 153//22 151//22
f 154//23 156//23 155//23 153//23
f 156//24 158//24 157//24 155//24
f 158//25 160//25 159//25 157//25
f 160//26 162//26 161//26 159//26
f 162//27 164//27 163//27 161//27
f 164//26 166//26 165//26 163//26
f 166//28 168//28 167//28 165//28
f 168//29 170//29 169//29 167//29
f 170//30 114//30 113//30 169//30
f 172//31 174//31 173//31 171//31
f 174//32 176//32 175//32 173//32
f 176//33 178//33 177//33 175//33
f 178//34 180//34 179//34 177//34
f 180//35 182//35 181//35 179//35
f 182//36 184//36 183//36 181//36
f 184//37 186//37 185//37 183//37
f 186//38 188//38 187//38 185//38
f 188//39 190//39 189//39 187//39
f 190//40 192//40 191//40 189//40
f 192//41 194//41 193//41 191//41
f 194//42 196//42 195//42 193//42
f 196//43 198//43 197//43 195//43
f 198//44 200//44 199//44 197//44
f 200//45 202//45 201//45 199//45
f 202//46 204//46 203//46 201//46
f 204//47 206//47 205//47 203//47
f 206//48 208//48 207//48 205//48
f 208//49 210//49 209//49 207//49
f 210//50 212//50 211//50 209//50
f 212//51 214//51 213//51 211//51
f 214//52 216//52 215//52 213//52
f 216//53 218//53 217//53 215//53
f 218//54 220//54 219//54 217//54
f 220//26 222//26 221//26 219//26
f 222//27 224//27 223//27 221//27
f 224//29 172//29 171//29 223//29
